/* XPM */
static char *aca09815795944c6df1e0c68dd731964k3uN4M7uuxvvObno[] = {
/* columns rows colors chars-per-pixel */
"64 64 65 1 ",
"  c None",
". c black",
"X c #291F14",
"o c #361312",
"O c #303430",
"+ c #430A1B",
"@ c #440A1B",
"# c #440A1C",
"$ c #440B1C",
"% c #450B1C",
"& c #450C1D",
"* c #4E1C19",
"= c #6A0F29",
"- c #6A102A",
"; c #6B102A",
": c #6B112A",
"> c #6B112B",
", c #6C112A",
"< c #6C112B",
"1 c #6C122B",
"2 c #6C122C",
"3 c #7C2E29",
"4 c #753E2D",
"5 c #76451A",
"6 c #77461A",
"7 c #78471B",
"8 c #78611F",
"9 c #78523D",
"0 c #28446C",
"q c #504C4C",
"w c #8C193F",
"e c #8D1A3F",
"r c #8E1B3F",
"t c #8D1A40",
"y c #8E1A40",
"u c #8E1B40",
"i c #8E1B41",
"p c #8F1C40",
"a c #8F1C41",
"s c #D52C58",
"d c #D52D58",
"f c #D52D59",
"g c #D62D58",
"h c #D62D59",
"j c #D72E59",
"k c #D72E5A",
"l c #D72F5A",
"z c #A17854",
"x c #CA6560",
"c c #C78F33",
"v c #C39F38",
"b c #D48C52",
"n c #DEAF48",
"m c #DFB048",
"M c #FCD356",
"N c #F57A92",
"B c #F67A93",
"V c #7C8383",
"C c gray58",
"Z c #A3ABAF",
"A c #EBB385",
"S c #FFD9AD",
"D c #FFF9BB",
"F c LightGray",
"G c #DBE6EB",
/* pixels */
"                                                                ",
"                        &&=<=,,==,=,,==,%%                      ",
"                        %%<=====,=,===2=%%                      ",
"                    22<=arkkjkkjkkkkaaaaya2=22                  ",
"                    22==aeggjjjjjjjkaeyyyy==22                  ",
"                  <=aaarkhBBBBBBBBjkraeaeayyaa2=                ",
"                  ==eyrrkkBBBBBBBBhkraaeaeyeey==                ",
"                ==aahhjjBBBBBBBBBBBBhheaeayaeaye2=              ",
"                <=erkjjjBBBBBBBBBBBBjjrrrrrreaea=<              ",
"              22eejjBBBBBBBBBBBBjjjjjkkjkkaparaeyy22            ",
"              22rejjBBBBBBBBBBBBkkjjkkkkjjrarrraee22            ",
"            22eesjBBBBBBkkkg%%<<,,,,@@kkjjkkkkaryyya22          ",
"            22eessNBBBBBkjjj%%2<,,=2%%kkjjkkjjrryyee22          ",
"            &&eeNNNBjk%%<<<<MMMMMMMMMM=2<<&@jjjjyyee&&          ",
"            &&eeNNBBjj@%<<<<MMMMMMMMMM=2<<@@jjjjyyee&&          ",
"          22aaggBB<<<<77mmDDMMmmccmmMMDDmm77<<<<kgeepp22        ",
"          22aaggBB<<<<77mmDDMMmmccmmMMDDmm77<<<<kjeeaa22        ",
"          22aagg<<77mmMMMMmm77ccMMcc77mmMMMMmm77<<ssaa22        ",
"          22aakg<<77mmMMMMmm77ccMMcc77mmMMMMmm77=<jsaa22        ",
"          22aa2=mmccMMccmmccSS77mm77SSccmmccMMccmm=<aa22        ",
"          22pp=<mmccMMccnmccSS77mm77SSccmmccMMccmm<=rp22        ",
"          &&pr==nn66mm77cc77SS77cc77SS67cc77mm66mm==pp&&        ",
"          &&pp==nn66mm77cc76SS77cc77SS77cc77mm66mm==pp&&        ",
"          &&pp==bbAA66444466SSSS77SSSS66444466AAbb==pp&&        ",
"          &&rr-=bbAA66444466SSSS77SSSS66444466AAbb==ay&&        ",
"          &&ss<<..AAAACC....AAAAAAAAAA....CCAAAA..<<tt&&        ",
"          &&ss<<..AAAACC....AAAAAAAAAA....CCAAAA..<<tt&&        ",
"          &&ss<<..bbAAFF....AAAAAAAAAA....FFAAbb..--ww&&        ",
"          &&gs<<..bbAAFF....AAAAAAAAAA....FFAAbb..<<yy&&        ",
"          &&lg==..bbAAFF0000AAAAAAAAAA0000FFAAbb..==aa&&        ",
"          &&ll-=..bbAAFF0000AAAAAAAAAA0000FFAAbb..==aa&&        ",
"          &&ll22..44AAFF0000SSSSSSSSSS0000FFAA44..<<aa&&        ",
"          &&ll22..44AAFF0000SSSSSSSSSS0000FFAA44..22aa&&        ",
"            &&ap22..bbAASSSSSSSSSSSSSSSSSSAAbb..22aa&&          ",
"            &&pp22..bbAASSSSSSSSSSSSSSSSSSAAbb..22aa&&          ",
"            &&llaa22..bbAASSSSSSSSSSSSSSAAbb..22lkaa&&          ",
"            &&glaa22..bbAASSSSSSSSSSSSSSAAbb..22llaa&&          ",
"              &&ggay<-..44bbbbAAAAAAbbbb44..2=kgyy&&22          ",
"              &&ggea-<..44bbbbAAAAAAbbbb44..==gkyt$&22          ",
"              OO+#ggea-=<=<=<<@@44@@<=<-==2=gkya$$OO            ",
"              OO@@ggyy-------<@@44@@<-<<-<--ggay$&OO            ",
"              OO@@<=ggkgffarre<<yp<<rrersskg2-%%ZZOO            ",
"              OO@@-<dfkkgfrrrr<<pr<<rrrrggkk-2@&ZZOO            ",
"            qqVVVV@@+#aayr<-@@rp1<pr@@-<year+@@@VVOO            ",
"            qqVVVV@@++yayy--#%aa11pp&@--ttae++@@VVOO            ",
"          88bbqqVVOO..@+@@##ZZqqZZqqZZ#%##@@OOVVZZVVOO          ",
"          88bbqqVVOO..@@+@##ZZqqZZqqZZ%%+++@OOVVZZVVOO          ",
"          ..vvvv88....OOqqZZGGGGGGGGGGZZqqOO..VVGGZZOO          ",
"          ..vvvv88....OOqqZZGGGGGGGGGGZZqqOO..VVGGZZOO          ",
"          ..bbbb..  ..**3333****33**********..88vvvv..          ",
"          ..bbbb..  ..**3333****33**********..88vvvv..          ",
"            ....  ..oo33xx3333xx333333**3333oo..SSbb..          ",
"            ....  ..oo33xx3333xx333333**3333oo..SSbb..          ",
"                    **xxxx**xxxxxx3333**3333**ooAA....          ",
"                    **xxxx**xxxxxx3333**3333**ooAA....          ",
"                    oo**33**xxxxxx33****3333**oo....            ",
"                    oo**33**xxxxxx33****3333**oo....            ",
"                      oooooo************oo**oo                  ",
"                      oooooo************oo**oo                  ",
"                        ....XXXXXX..XXXX                        ",
"                        ....XXXXXX..XXXX                        ",
"                        ....99zz99..                            ",
"                        ....99zz99..                            ",
"                                                                "
};
