/* XPM */
static char *_31cfee4248c40b09e684f49b5d5e344JhnndDw2kOQaoXcj[] = {
/* columns rows colors chars-per-pixel */
"64 63 128 2 ",
"   c None",
".  c #060302",
"X  c #11100F",
"o  c #1D1C1B",
"O  c #230505",
"+  c #28130B",
"@  c #2E1D11",
"#  c #0D2907",
"$  c #272623",
"%  c #393938",
"&  c #401909",
"*  c #651510",
"=  c #7E1D18",
"-  c #532A0D",
";  c #5E2D0E",
":  c #7C2914",
">  c #653811",
",  c #753213",
"<  c #753713",
"1  c #662527",
"2  c #6B2D2D",
"3  c #6C4A17",
"4  c #467A33",
"5  c #407F33",
"6  c #494642",
"7  c #5C4B4E",
"8  c #5F5451",
"9  c #595858",
"0  c #724B45",
"q  c #6B625F",
"w  c #4B5468",
"e  c #5B6368",
"r  c #646162",
"t  c #787776",
"y  c #A1261D",
"u  c #A9291F",
"i  c #8A2729",
"p  c #9A2A2A",
"a  c #B52D22",
"s  c #BE2F2A",
"d  c #C73227",
"f  c #D43629",
"g  c #D3362C",
"h  c #DB382B",
"j  c #DC382E",
"k  c #C43430",
"l  c #D53731",
"z  c #E0392D",
"x  c #99461C",
"c  c #99481C",
"v  c #A77F7F",
"b  c #5EC03F",
"n  c #62B848",
"m  c #62BF48",
"M  c #64BC4A",
"N  c #67BA4F",
"B  c #65BE4E",
"V  c #67BF4E",
"C  c #68BE4E",
"Z  c #65B050",
"A  c #67BD56",
"S  c #6DB855",
"D  c #79B866",
"F  c #7EBB69",
"G  c #65C04C",
"H  c #68C14B",
"J  c #6CC354",
"K  c #72C25C",
"L  c #B69528",
"P  c #837F80",
"I  c #7F9588",
"U  c #7BC0EE",
"Y  c #8A8384",
"T  c #918B89",
"R  c #908F8F",
"E  c #839290",
"W  c #8E9390",
"Q  c #A09895",
"!  c #92BF87",
"~  c #A7A19F",
"^  c #9EA0A3",
"/  c #ACA4A3",
"(  c #AFABAB",
")  c #B6B7B5",
"_  c #BAB9BA",
"`  c #BFBEBE",
"'  c #C3B0B3",
"]  c #C4BAB4",
"[  c #B9E1AE",
"{  c #C1C0BF",
"}  c #C9C0BC",
"|  c #8BB1CC",
" . c #BEC1C3",
".. c #83C2F1",
"X. c #BFDDED",
"o. c #A6DBF5",
"O. c #AFE0F4",
"+. c #C8C6C6",
"@. c #CBCCCA",
"#. c #D0C0C0",
"$. c #C8DEC0",
"%. c #D4DACF",
"&. c #D3CFD1",
"*. c #D1D0D0",
"=. c #D9D7D7",
"-. c #DEDEDF",
";. c #E1DEDE",
":. c #ECDADB",
">. c #D5E9CF",
",. c #E1E2DF",
"<. c #DBE1E2",
"1. c #E3E3E1",
"2. c #E2E1E2",
"3. c #E5E1E1",
"4. c #E5E3E3",
"5. c #E3E4E4",
"6. c #E7E5E4",
"7. c #EBE4E5",
"8. c #EEE7E4",
"9. c #F0EFEF",
"0. c #E4F2E0",
"q. c #EEF2EC",
"w. c #F2FCE9",
"e. c #FAF6F7",
"r. c #FDF8F3",
"t. c #F8FBF6",
"y. c #FBFAFA",
"u. c white",
/* pixels */
"                                                                                                                                ",
"                                                                                                                                ",
"                                                                                                                                ",
"                                                                                                                                ",
"                                                        u.u.      u.                                                            ",
"                                                        u.u.u.u.u.u.                                                    u.u.u.  ",
"                                                        =.. . . . o                                                             ",
"                                                      *.' O & O O @ &.6.                =.*.*.*.*.*.*.*.*.*.*.*.-.              ",
"                                                      X * f h f a = . t                 % . . . . . . . . . . . %               ",
"                                                  X O f a u y y h z f i X *.        ` X 9 r P P P P P P P P P P t X /           ",
"                                                  O O h d y y y h f h p O *.        _ . 9 r P P P P P P P P P P t . /           ",
"                                              $ . f h h f z h h y y y a z & X u.    _ . 9 r r r r r r r r Y P P t X /           ",
"                                          y.e.$ O d f f f h h h u u u a z * O e.    +.6 9 r q q q q q q q Y Y P t % )           ",
"                                          Y X = u y y y y y y u h h h h h z l O $       % X * * * * * * * * * . 6               ",
"                                      9.P 0 = a a d d d d d d d h h h h h z j y 2 R @.u.` ) O & : : : : : O & ) {               ",
"                                    u.4.O = h f f z z z z z h h h z h h z z z h k O T       X . x c c < < . o                   ",
"                                  y.. O d f h z z z z z z z h h y y y y y y y y y l = X 2.  X . c c c < < . o                   ",
"                                y.r.O * f f h j j j j j j j j j y y y y y y y y u h = O 4.  X . c c c < < . o                   ",
"                                % O f d y y y y y y y y y y y y h h h h h h h j h z h f * . . . c c c < < . o                   ",
"                            6.+.2 = h f a a u a a a a a a a a a h h h h h h h h h h h h = * O O c c c < < . o                   ",
"                            / . a f z f f f h z h z z z z z z h h h j j j j j j j j j j f z = * x x x < < . o                   ",
"                        9.6 2 = u a h h h h h z h h h h h h h h h f u u u u u u u u u u f h d d = , c < < . o                   ",
"                      y.9.& * y u u f f f f f h h h h h h h h h f f y y y y y y y y y y f j h g = : c < < . o                   ",
"                      . O z z h f f y y y y y y y y y y y y y y y y z h h h h h h h h h u y y y z u * , < . o                   ",
"                  =.=.* = z h h f f a a a a a a a a a a a a a a a a h h h h h h h h h h a u u u j a = : : . o                   ",
"                  % O f f h h h f f f h f h h h h h h h h h h h h h h h h h h h h h h h h h h h h h z = * . o                   ",
"              { e 1 = a a a a a a a h h h f f f f h h h h f h z h h a a a a a a a a a a f z z z z z z s s . o                   ",
"            u.~ O = u y u u u u y u f f f f f f f f f f f f h z h f y y y y y y y y y y f j j j j j j j z O +                   ",
"          9.o = d f f f f f f f f f y y y y y y y y y y y y y y y u h h h h h h h h h h u y y y y y y y y g g + %               ",
"          9.X * h h h h h h h h h f u u u u u u u u u u u u u u u u f h h h h h h h h h a u u u u u u u u f f . %               ",
"          9.. * f h h h h f h h h f f h h h h h h z h h h h h h h h h h h h h h h h h h h z z z z z z z z h j . %               ",
"          e.+.v = = = f d y y y y y y y y y y y y u y y y y y y y y y y y y y y y y y y y y y y y d j u y = = +.@.              ",
"            u.^ . . O f a * * * * * * * * * * * * * * * * * * * * * * * * * * * * * * * * * * * * a z i i . o                   ",
"            u.u.y.y.y.O - :.:.:.:.:.:.:.:.:.:.:.:.:.:.:.:.#.#.#.#.] #.#.#.#.#.#.#.} #.#.#.#.#.] #.T O : , . o                   ",
"                      o $ <.<.2.2.2.2.2.2.2.2.2.2.2.2.2.=. .] +.+.{ { { { { { { { { { { +.] +.+. .W . ; , . o                   ",
"                      o $ <.;.;.$ + + + + + + + + 4.3.2.2.<.2.2.3.2.2.2.2.4.7.X + + + + + @ ]  .` T . ; , . o                   ",
"                      o $ -.@.( t r w 7 - 6 w w w ( / ;.2.2.2.2.2.2.2.2.2._ ( e e w w w w w R T _ R . ; , . o                   ",
"                      o $ -.Q $ X.o.U | 3 E U U U @ @ ,.2.2.2.2.2.2.2.2.2.8 @ X.o.U ......U $ X ` R . > , . o                   ",
"                      o $ -.Q @ X.O.U | 3 E U U U + + 2.2.2.2.4.2.2.2.2.3.7 + X.O.o.o.o...U o . ` R . ; , . o                   ",
"                      o $ -.Q @ X.O.U | 3 E U U ..+ + ,.2.2.2.4.2.2.2.2.2.7 + X.O.O.O.O...U o . ] W . ; , . o                   ",
"                      o $ ;.Q @ 3 3 3 3 3 3 3 3 3 @ + ,.,.,.3.4.2.2.2.2.,.3.7.O + + + + + @ 8.7.{ R . ; , . o                   ",
"                      o $ <.Q @ 3 3 3 3 3 3 3 3 3 @ + 2.,.,.:.,.3.6.6.3.6.:.3.O @ @ @ @ @ $ 6.6.` R . ; , . o                   ",
"                      o $ -.Q @ X.o.U | 3 E U U U + + 2.,.,.q & & & @ & & ] ;.4.2.,.,.,.2.2.2.1.` R . ; , . o                   ",
"                      o $ ;.Q @ X.O...| 3 E U U U + + 2.=.' 0 @ & & ; & @ Q ( 4.2.2.2.4.2.2.2.1.` R . ; , . o                   ",
"                      o $ 2.Q @ X.O.o.{ 3 I U U U + + 5.] @ - ; ; ; ; ; ; & @ 7.2.2.2.2.2.2.2.1.` R . ; , . o                   ",
"                      o $ ;.3.8.% + + + & @ o o @ 7.5.<.+.& - ; ; ; ; ; ; & @ 7.2.2.2.2.2.2.2.2.` R . ; , . o                   ",
"                      o $ ;.3.3.$ + + + + + + + + 3.3.3.] & - ; ; ; ; ; ; & + 7.2.2.2.2.2.2.2.<.` R . > < . X                   ",
"                      o $ ;.3.3.3.3.,.4.4.4.2.2.3.3.4.+./ & - ; - ; ; ; ; & @ 7.2.2.2.2.2.2.] +.` R . . X u.                    ",
"                  w.w.X $ ;.2.2.2.4.,.3.3.3.2.2.3.2.<.` / & - ; > > ; ; ; & + 7.2.2.2.2.2.2.` ` ` R . % 6 u.                    ",
"                  F K . $ -.2.2.2.2.3.3.3.3.7.7.4.] { { / & - - L L ; ; ; & @ 7.2.2.2.2.2.2.` ` ` R . 9.                        ",
"              0.! S K . $ -.2.2.2.2.4.4.3.&.+.+.+.{ { { / & - ; 3 3 ; ; ; & + 7.2.2.=.+.+.+.` ` ` R . ! ! ! ! u.                ",
"              0.A M K . $ -.5.6.6.7.3.7.3.&.] +.{ { { { / & - ; ; ; ; ; ; & @ 8.1.2.=.` { { ` ` ` R . Z C N n u.                ",
"      u.Z Z Z Z V n K . $ -.@.` ` ` ` ` ` ` ` { { { { { / @ - ; ; ; ; ; ; & + ] ]  . .` { { ` ` ` R . Z V C n Z Z Z $.          ",
"      u.D F F S G V J # $ %.@. .` ` ` ` ` _ ) _ _ _ _ _ ~ @ - ; - - - - ; @ + ] _ _ _ ) ) ) ) ) ) I # n V V M F F F $.          ",
"              >.G V V V Z X . . . . . . . . . . . . . . . . . . . . . . . . . . . . . . . . . . . 4 V V V V b                   ",
"              q.[ K V V A 4 4 4 4 4 4 4 4 4 4 4 4 4 4 4 4 4 4 4 4 4 4 4 4 4 5 5 5 5 5 5 5 5 5 5 5 5 H V V [ [                   ",
"                  S b m H H V V V V V V V m m m m V V V B V G G C M G G G A C C C C V C C C C V H H V m b u.                    ",
"                  t.t.n H H V V V V V V V [ t.t.t.C V V B V G G G H G G G H C C C C V C C C C V V M J 0.t.u.                    ",
"                      Z N N N N N N N N N [       S N N N N N N N N N N N N N N N N N N N N N N N N N 0.                        ",
"                                                                                                                                ",
"                                                                                                                                ",
"                                                                                                                                ",
"                                                                                                                                "
};
