/* XPM */
static char *f27a1a4037ce42cda4d6429d6db25ea0ECJxlI66ZgcuYC9s[] = {
/* columns rows colors chars-per-pixel */
"64 64 128 2 ",
"   c None",
".  c #5F1800",
"X  c #7E0000",
"o  c #412900",
"O  c #442B00",
"+  c #422C00",
"@  c #452C00",
"#  c #472D00",
"$  c #492E01",
"%  c #4E3302",
"&  c #563804",
"*  c #5E3F02",
"=  c #025805",
"-  c #006106",
";  c #016306",
":  c #026306",
">  c #016406",
",  c #026406",
"<  c #026506",
"1  c #026606",
"2  c #036706",
"3  c #0A7206",
"4  c #0A7505",
"5  c #0C7406",
"6  c #6E4808",
"7  c #744D07",
"8  c #7A5305",
"9  c #820000",
"0  c #850000",
"q  c #860000",
"w  c #870000",
"e  c #880000",
"r  c #8A0000",
"t  c #8D0000",
"y  c #8C0B0B",
"u  c #940000",
"i  c #980000",
"p  c #990000",
"a  c #980101",
"s  c #9A0000",
"d  c #9B0000",
"f  c #9C0000",
"g  c #990B00",
"h  c #930909",
"j  c #A80101",
"k  c #B10303",
"l  c #A01515",
"z  c #AB1E1E",
"x  c #A72323",
"c  c #B53030",
"v  c #C60000",
"b  c #C70505",
"n  c #C90000",
"m  c #CA0000",
"M  c #CA0303",
"N  c #CD0005",
"B  c #C90505",
"V  c #CA0404",
"C  c #CA0505",
"Z  c #CB0505",
"A  c #CA0605",
"S  c #CD0505",
"D  c #CE0505",
"F  c #CB0D05",
"G  c #CC0E0E",
"H  c #D00505",
"J  c #CB1313",
"K  c #CD1515",
"L  c #CD1616",
"P  c #CE1717",
"I  c #CB1919",
"U  c #CE1C1C",
"Y  c #D11C1C",
"T  c #D11E1E",
"R  c #D32C2C",
"E  c #D32F2F",
"W  c #D42E2E",
"Q  c #D42F2F",
"!  c #D43030",
"~  c #D53030",
"^  c #D43131",
"/  c #D53333",
"(  c #D93F3F",
")  c #855E03",
"_  c #865F03",
"`  c #876003",
"'  c #845E26",
"]  c #95753C",
"[  c #E25F5F",
"{  c #1B9703",
"}  c #1D9104",
"|  c #1D9A03",
" . c #219A04",
".. c #219B04",
"X. c #229D04",
"o. c #239E04",
"O. c #22A302",
"+. c #21A402",
"@. c #22A402",
"#. c #22A602",
"$. c #22A702",
"%. c #23A802",
"&. c #3EAB41",
"*. c #A2957F",
"=. c #F08C8C",
"-. c #F18F8F",
";. c #FBA2A2",
":. c #FCA3A3",
">. c #FBA7A7",
",. c #FDA4A4",
"<. c #FCA6A6",
"1. c #FEA6A6",
"2. c #FEA7A7",
"3. c #FEA8A8",
"4. c #FFA8A8",
"5. c #FEA9A9",
"6. c #FFA9A9",
"7. c #FDABAB",
"8. c #FCBFBF",
"9. c #BFFBC2",
"0. c #FCC0C0",
"q. c #C0FBC3",
"w. c #C2F9C5",
"e. c #F7E3C0",
"r. c #F4F1EB",
"t. c #F5F2EB",
"y. c #F9F6F0",
"u. c #FCF9F9",
/* pixels */
"                                                                                                                                ",
"                                                                                                                                ",
"                                                                                                                                ",
"                                                                                                                                ",
"                                                                                                                                ",
"                        < < < < < < < < <                             o o                                                       ",
"                        < < < < < < < < <                             # o                                                       ",
"                < < < < #.#.#.#.#.#.#.#.%.< < <                   o # ) ` # #                                                   ",
"                : : : : #.#.#.%.#.#.#.#.%.< : :                   o # ) ) # #                                                   ",
"            : <  . .#.#.#.{ < < < #.#.#.#.#.X. .< <           *.# ) ) 6 6 # #                                                   ",
"            w.w.3 3 4 4 #.#.| | | 4 4 4 3 #.O.O.} } &.&.  y.] ' 8 7 7 % % e.e.                                                  ",
"                < < < < #.#.#.#.#.< < < : #.#.#. . .< <   t.@ * ) 6 6 + o                                                       ",
"                        < 5  .#.#.#.#.#.%.< < <  . .< <   t.@ & 6 @ @ C C w e e e e w e                                         ",
"                        < 4  .#.#.#.#.#.%.< < <  . .< <   t.@ & 6 @ # C C e e e e e w w                                         ",
"                          q.< X. . .| #.#.#.#.#.< < < < @ $ _ 8 6 # + C C C C C 2.;.m C e e e X                                 ",
"                          q.< X.X. .X.#.#.#.#.#.: < < < @ $ _ 8 6 o + C C D C C 2.,.m m w w w X                                 ",
"                              = < < <  . . . . . . .: < @ $ 6 & # s s s s s s s C C ,.:.C C C D e u.                            ",
"                          0.h F F F F 2 2 2 2 2 2 2 g g @ $ 6 & + s s s s w 9 C C C I I C C C C C y h                           ",
"                          0.e D C C C < < < < < 2 2 s s @ $ 6 & # s s s s w 9 C C C C C C C C C C X e                           ",
"                        w u D C C C C N N N N N e e w w e t e . # w w w w D D C C C C C 2.3.C C C D D 9 w                       ",
"                        e f C C C C C C C C C C w e e e e e e . o e e e w C C C C C C C :.2.C C C C C w w                       ",
"                    e w C C C C C C C Q Q Q P C C C C C C b e e e D C C C C C C 2.;.m C C C C C C C C C C e w                   ",
"                    e w C C C m m m m T T T G m m m C C C b 9 9 9 C C C C v v v 3.3.m C C C C C C C C C C e w                   ",
"                    e w C C C Q Q Q ^ :.:.:.[ Q Q ^ C C C C C C C C C C m ;.;.2.J C C C C C C C C C C C C e w                   ",
"                X X D D C K ^ Q Q 3.3.T Y Y -.3.3.3.^ ^ ^ R C C C C C C C v v v C C C C C C C C C C C C C s f X x               ",
"                e e C C C K ^ Q Q :.:.Q Q Q =.:.:.:.Q ^ Q R C C C C C C C C C C C C C C C C C C C C C C C s s e c               ",
"                e e C C C K Q 3.:.:.:.:.:.:.[ Q Q Q C C C C C C C C C C C C C C C C C C C C C C C C C C C s s e c               ",
"                e e C C C K Q 3.:.:.:.:.:.:.[ Q Q Q C C C C C C C C C C C C C C C C C C C C C C C C C C C s s e c               ",
"                e e C C C K Q 3.:.:.:.:.2.Q Q Q m C C C C C C C C C C C C C C C C C C C C C C C C C C C C s s e c               ",
"                e e C C C K Q 3.:.:.:.:.2.Q Q Q C C C C C C C C C C C C C C C C C C C C C C C C C C C C C s s e c               ",
"                e e C C C K Q 3.:.:.:.:.2.Q Q Q C C C C C C C C C C C C C C C C C C C C C C C C C C C C C s s e c               ",
"                e e C C C K Q 3.:.:.:.( ( Q U G C C C C C C C C C C C C C C C C C C C C C C C C C C C C C s s e c               ",
"                e e C C C K ^ 3.:.:.:.Q Q Q I C C C C C C C C C C C C C C C C C C C C C C C C C C C C C C s s e c               ",
"                e e C C C K Q 3.:.:.:.Q Q Q P C C C C C C C C C C C C C C C C C C C C C :.2.C C C C C C C s s e c               ",
"                e e C C C K ^ 3.:.:.:.Q Q Q K C C C C C C C C C C C C C C C C C C C C C :.2.C C C C C C C s s e c               ",
"                e e C C C K R 3.:.:.:.Q ^ D C C C C C C C C C C C C C C C C C C C C C C C C C C C C C C C s s e c               ",
"                e e C C C K Q 2.;.:.:.Q Q C C C C C C C C C C C C C C C C C C C C C C C C C C C C C C C C s s e c               ",
"                e e C C C K Q Q Q :.:.Q ^ C C C C C C C C C C C C C C C C C C C C C C C C C C C C C C C C s s e c               ",
"                e w s s C C C Q Q R R Q Q C C C C C C C C C C C C C C C C C C C C C C C C C C C C C C s s s s w c               ",
"                e w s s C C C ^ Q Q Q Q ^ C C C C C C C C C C C C C C C C C C C C C C C C C C C C C C s s s s w c               ",
"                e e s s C C C Q Q :.:.Q Q C C C C C C C C C C C C C C C C C C C C C C C C C C C C C C s s s s e c               ",
"                e e s s C C C ^ Q :.:.Q ^ C C C C C C C C C C C C C C C C C C C C C C C C C C C C C C s s s s w c               ",
"                    e e s j C C C ^ Q Q Q C C C C C C C C C C C C C C C C C C C C C C C C C C C C C C s s e w                   ",
"                    e e s j C C C ^ ^ ^ ^ C C C C C C C C C C C C C C C C C C C C C C C C C C C C D D s s e w                   ",
"                    e e s j C C C C C ^ Q C C C C C C C C C C C C C C C C C C C C C C C C C C C C u s s s e w                   ",
"                    e e s s s D C C C C m C C C C C C C C C C C C C C C C C C C C C C C C C C C C u s s s e w                   ",
"                    e e s s s D C C C C C C C C C C C C C C C C C C C C C C C C C C C C C C C C C u s s s e w                   ",
"                        w t s s s C C C C C C C C C C C C C C C C C C C C C C C C C C C C C C D s s s e e                       ",
"                        e t s s s C C C C C C C C C C C C C C C C C C C C C C C C C C C C C C D s s s e e                       ",
"                        e t s s s s s C C C C C C C C C C C C C C C C C C C C C C C C C C D s s s s s e e                       ",
"                        e 9 f s s s s H H C C C C C C C C C C C C C C C C C C C C C C C D H s s s f f w e                       ",
"                          8.e s s s s s s C C C C C C C C C C C C C C C C C C C C C C C s s s s s w e                           ",
"                              u s s s s s s s s C C C C C C C k s u s C C C C C s s s s s s s s s w e                           ",
"                              u s s s s s s s s C C C C C C C k s s s C C C C C s s s s s s s s s w e                           ",
"                                  e w s s s s s s s s s s s s s s s s s s s s s s s s s s s s f e u.                            ",
"                                  e e s s s s s s s s s s s s s s s s s s s s s s s s s s s s s e u.                            ",
"                                      e w s s s s s s s s s s s s s s s s s s s s s s s s s e X                                 ",
"                                      z z s u s s s s s s s s s s s u s s s s s s s u s u s z l                                 ",
"                                          e e e s s s s s s s s s w e s s s s s s s e e e w                                     ",
"                                                9 w w 9 w 9 w w w     w 9 w w w w w                                             ",
"                                                w e e e e e e e e     e w e e e e e                                             ",
"                                                                                                                                ",
"                                                                                                                                ",
"                                                                                                                                "
};
