/* XPM */
static char *_c7a652e24bf49e080bffc7bf3fa52c1kIo845dAkR01NNJU[] = {
/* columns rows colors chars-per-pixel */
"64 64 171 2 ",
"   c #3C8359",
".  c #27764A",
"X  c #297A4C",
"o  c #267248",
"O  c #235E3D",
"+  c #3B8159",
"@  c #256A43",
"#  c #2B7849",
"$  c #267047",
"%  c #266E46",
"&  c #4F9078",
"*  c #337D60",
"=  c #33805D",
"-  c #34835C",
";  c #1E4955",
":  c #12363C",
">  c #75A194",
",  c #2A6E5F",
"<  c #1E5248",
"1  c #225D4A",
"2  c #2F6E64",
"3  c #708286",
"4  c #317C5F",
"5  c #327D5A",
"6  c #1F5553",
"7  c #1A4B55",
"8  c #16444A",
"9  c #338064",
"0  c #1A4C50",
"q  c #33805A",
"w  c #051825",
"e  c #19484B",
"r  c #194951",
"t  c #61807F",
"y  c #26643F",
"u  c #245F56",
"i  c #1C4757",
"p  c #224E55",
"a  c #20515C",
"s  c #358556",
"d  c #6EC847",
"f  c #6CCA49",
"g  c #327E53",
"h  c #2B4653",
"j  c #F8FBFB",
"k  c #6DC74E",
"l  c #307A49",
"z  c #367C64",
"x  c #184855",
"c  c #6AC946",
"v  c #61BB5B",
"b  c #BDEF65",
"n  c #E8F869",
"m  c #6BC748",
"M  c #67B861",
"N  c #69C750",
"B  c #6AC85D",
"V  c #D2F66E",
"C  c #70C54E",
"Z  c #66B266",
"A  c #1D4A57",
"S  c #1A4B58",
"D  c #58B057",
"F  c #23734A",
"G  c #317D49",
"H  c #98D64F",
"J  c #A0DB54",
"K  c #89D149",
"L  c #3B7E56",
"P  c #397661",
"I  c #357F48",
"U  c #69CA48",
"Y  c #24404A",
"T  c #6CC851",
"R  c #70C45C",
"E  c #E1F86E",
"W  c #6FC85A",
"Q  c #6CC564",
"!  c #2E775A",
"~  c #304C5F",
"^  c #77C648",
"/  c #83C345",
"(  c #ADE682",
")  c #B0C7D1",
"_  c #D1DBE1",
"`  c #E7F4F4",
"'  c #3A9053",
"]  c #D8EEF0",
"[  c #388B4A",
"{  c #3F7E35",
"}  c #33754F",
"|  c #358348",
" . c #839595",
".. c #367F59",
"X. c #22744A",
"o. c #488B58",
"O. c #2A774A",
"+. c #1A425A",
"@. c #1C4C57",
"#. c #639F55",
"$. c #488E47",
"%. c #2D7A49",
"&. c #1E704A",
"*. c #214755",
"=. c #3B8348",
"-. c #418458",
";. c #4C9146",
":. c #4B9047",
">. c #183F4D",
",. c #539646",
"<. c #E6ECF0",
"1. c #E4EBEE",
"2. c #488A57",
"3. c #6D5252",
"4. c #955148",
"5. c #8A5850",
"6. c #36805A",
"7. c #9A4F46",
"8. c #4E4837",
"9. c #55312F",
"0. c #5A2D29",
"q. c #8C4C42",
"w. c #42393E",
"e. c #572F30",
"r. c #28774B",
"t. c #307C52",
"y. c #444E45",
"u. c #583033",
"i. c #52343A",
"p. c #317C52",
"a. c #985043",
"s. c #7F4A44",
"d. c #307B51",
"f. c #378057",
"g. c #3E855D",
"h. c #6B3933",
"j. c #357F55",
"k. c #2C794E",
"l. c #3B835B",
"z. c #E2DAD3",
"x. c #26754A",
"c. c #CC7B57",
"v. c #DE8554",
"b. c #B9664A",
"n. c #C9988E",
"m. c #307C49",
"M. c #297749",
"N. c #DD8850",
"B. c #3F8748",
"V. c #358049",
"C. c #B56647",
"Z. c #29774A",
"A. c #2C7A49",
"S. c #24744A",
"D. c #AA5739",
"F. c #4F9447",
"G. c #DB8752",
"H. c #AC5B3D",
"J. c #A86F67",
"K. c #BC7259",
"L. c #95747D",
"P. c #A45648",
"I. c #C8BAC1",
"U. c #C3B5B5",
"Y. c #856264",
"T. c #A55D43",
"R. c #B06149",
"E. c #6D464E",
"W. c #4A1920",
"Q. c #3C8248",
"!. c #6E6051",
/* pixels */
"  . . . . . . . . . . . . . . . . . . . . . . . . . . . . . . . . . . . . . . . . . X o O O o X . . . . . . . . . . . . . . . . ",
"+ . . . . . . . . . . . . . . . . . . . . . . . . . . . . . . . . . . . . . . . . . o @ O O @ o . . . . . . . . . . . . . . . . ",
"  . . . . . . . . . . . . . . . . . . . . . . . . . . . . . . . . . . . . . . . # $ O O % % O O $ # . . . . . . . . . . . . . . ",
"  . . . . . . . . . . . . . . . . . . . . . . . . . . . . . . . . . . . . . . . # $ O O % % O O $ # . . . . . . . . . . . . . . ",
"  . . . . . . . . . . . . . . . . . & * = - - ; : . . . . . . . . . . . . . . . . . o @ O O @ o . . . . . . . . . . . . . . . . ",
"  . . . . . . . . . . . . . . . > > , < 1 1 < 2 2 3 3 > > . . . . . . . . . . . . . X o O O o X . . . . . . . . . . . . . . . . ",
"  . . . . . . . . . . . . . . . 4 5 6 7 7 7 8 5 9 ; 0 q q . . . . . . . . . . . . . . . $ $ . . . . . . . . . . . . . . . . . . ",
"+ . . . . . . . . . . . . . w w 8 e 9 9 6 7 e - 9 ; r e e w w . . t y y y y 1 1 w w . . # # . . . . . . . . . . . . . . . . . . ",
"  . . . . . . . . . . . . . e 0 7 7 4 - u 7 e - 9 e 0 e e 7 7 . . & - - - 5 - 4 i p . . . . . . . . . . . . . . . . . . . . . . ",
"  . . . . . . . . . . . . . 4 = 4 - a 7 , 5 4 5 - 5 s d f 5 g - - - 5 - 5 - 5 - 5 4 h h . . . . . . . . . . . . . . . . . . . . ",
"  . . . . . . . . . . . j j 4 = 9 5 6 ; , 5 5 - 4 g g k k s q 5 - g g l l l g 5 = z ; : . . . . . . . . . . . . . . . . . . . . ",
"  . . . . . . . . . . . 9 - 6 ; 7 x * 5 u r e 5 s c c 4 5 f c q 5 v f b n b m M 7 ; 7 r - 5 . . . . . . . . . . . . . . . . . . ",
"  . . . . . . . . . . . 9 = 7 ; 7 7 z 4 , 7 0 q g N N = = B k q - v f b V V C Z A 7 7 r 5 5 . . . . . . . . . . . . . . . . . . ",
"  . . . . . . . . . . # a S 7 ; 7 7 7 x 2 q q = * x x 5 q r e c c c f d m D x 7 i A i 7 - 5 . . . . . . . . . . . . . . . . . . ",
"  . . . . . . . . . F G a 7 u u 0 7 7 S 6 , , , , r r 2 2 r r c c H J K m D L P A A i S , u . . . . . . . . . . . . . . . . . . ",
"  . . . . . . . . . F I a ; 5 4 0 ; 7 S x r r r r r r r r r r U c V n J m c f M ; 7 ; ; r : . . . . . . . . . . . . . . . . . . ",
"  . . . . . . . . . Y 8 A i - 5 5 - S S S ; S ; ; 7 r N T C R c c c d b E E E V W Q = 9 0 r ! ! ! ! . . . . . . . . . . . . . . ",
"+ . . . . . . . . . ~ ; ; 7 5 - 5 - 7 r 7 ; A 7 ; a x m m d f f c f c b n n n V f T q = 7 0 * 5 - - . . . . . . . . . . . . . . ",
"  . . . . . . . z 9 S i S 7 i ; - q q 5 6 ; i i 8 k k m f n n f U b n J d c c K n E k N q 9 0 7 7 7 z 9 . . . . . . . . . . . . ",
"  . . . . . . . z z A i i ; 8 e 4 - q - < : : : : d c c m V n f U b E J k d ^ / E E R Q = 9 7 7 e e * 9 . . . . . . . . . . . . ",
"  . . . . . . . p 7 x i 7 ; = q - - - s D d d m m f f m m f f c c c c c f J n V C R 7 7 x 7 x x * 5 e 7 7 7 . . . . . . . . . . ",
"  . . . . . . . p 7 7 i 7 ; = q q q q q D D D f f D v c c U f H H ^ c c c ^ ( ( k R 1 u S S , 6 , , u u r x ) _ ` . . . . . . . ",
"  . . . . . . . p ; S i x r = = = q q q 5 5 l f N - 5 c f c c n n K c f U D q ' k B - z 7 0 - 5 8 7 z - e x x x ) . . . . . . . ",
"  . . . . . . . _ ] ~ 7 * ! < 6 - q q q q 5 g [ [ v v [ [ m k K K { y l [ 5 6 1 [ [ 6 6 0 r q q Z Z M v } ! e 7 ) . . . . . . . ",
"  . . . . . . . . . ~ r = 5 S 7 4 q = q q q q q g f f 5 5 c f m d y r 2 5 , 0 u = 4 S 7 7 r 4 5 T c m f | s 0 r ) . . . . . . . ",
"+ . . . . . . . . . ~ 7 7 e 7 7 4 q = q q q q q q g g W W | | < < e 7 7 0 0 7 x 0 0 4 4 9 4 B k V E ^ U | - - 9 u Y  .. . . . . ",
"..X.. . . . . . . . ~ 7 7 7 7 7 4 q = q q q q q q q q f f q ! 7 r ; ; ; x r 7 7 S 6 q q = 5 T m E n ^ U | - s - u A  .. . . . . ",
"o.G O.. . . . . h x 7 7 5 5 = = S +.* = = q q q q q = 5 5 = q f f y x @.x , 5 ' f T q g U U s 4 T f U m U f 1 +.i ;  .. . . . . ",
"#.$.%.&.. . . . *.S 7 S 5 4 4 = 0 0 z * = q q q q q q g g = = k k y r r r , ! [ m N g g N U | g W T k N N N y ; 7 A  .. . . X.F ",
"#.$.=.%.O.` 9 9 S S S 7 5 - 7 7 5 q 6 S , q q q q q q f c 5 q 5 5 q q 5 5 5 5 ' c U U U q = T N g = = = 4 - < @.S @. .. . # G I ",
"-.=.;.:.G ` 9 z S 7 8 8 ! * 0 A P * 6 7 2 9 4 = = q q R R q q 5 5 q q s | l = ' R Q Q Q = q R R * z = q 5 9 0 S >.w  .. F G $.,.",
"-.=.;.:.G <.S @.A 8 4 9 ; 7 7 A S 7 ; 7 x x e = = q = q q q q q q q q D f D 5 q - - - - - - q = 0 x * q e 7 S @.) . . . F G $.,.",
"#.$.=.%.O.<.S S S x 8 r S 7 A A A A @.S S 7 x e e - 4 r 0 - q - q 6 8 , g g q 4 r e = = e 0 0 0 9 9 e e 7 S ] . . . . . . # G I ",
"#.$.%.&.. 1.S ; A S 7 7 x S ; A S 7 7 7 i ; ; 7 r 5 4 7 7 = 5 4 = 1 r , q 5 q 4 r r 5 5 0 r 0 0 = 5 0 7 7 S ] . . . . . . . X.F ",
"2.G O.. . . . . p 7 7 7 z - r x * q 6 0 3.4.5.; ; ; i ; 7 ; ; 7 x ! * , x ; 7 6 5 * 0 0 5 5 7 r 9 q 0 7 . . . . . . . . . . . . ",
"6.X.. . . . . . 0 8 7 0 4 4 7 7 z = p r 3.7.5.*.*.; *.S S A A A S 2 4 1 ; *.*.7 9 z e 8 5 5 7 r 9 4 e 7 . . . . . . . . . . . . ",
"+ . . . . . . . . . ~ 7 7 7 7 ; 7 7 4 = 8.9.0.7.q.0.0.7 A A A ; i w.e.e.9.e.e.w.S h 7.7.7.7.s 5 r ; ; ; . . . . . . . . . . r.t.",
"  . . . . . . . . . ~ 7 7 7 ; ; ; S P 9 y.9.0.4.4.0.e.S S S S 7 e w.e.e.9.u.u.i.*.h 4.4.4.4.5 q e r e e . . . . . . . . . r.p.. ",
"  . . . . . . . . . ~ r S A ; ; i 7 7 *.; 7 i e.e.a.7.e.9.9.9.9.e.e.e.e.e.s.7.7.a.5.A ; i ; q 5 0 @.. . . . . . . . j . . d.f.g.",
"+ . . . . . . . . . 3 3 @.A A A u u S ; i x h e.e.s.q.e.e.e.e.h.h.0.e.e.e.i.3.3.3.3.7 @.; 7 , 2 3 3 . . . . . . . . j . . j.k.l.",
"  . . . . . . . . . . . S A ; ; z - a ; 7 7 h e.e.u.u.e.e.e.9.a.a.h.e.e.u.w.x x A A x A ; ; S +.. . . . . . . . . . j . . k.. . ",
"  . . . . . . . . . . . _ _ *.; 6 p @.; ; 7 : z.z.e.e.9.9.q.q.h.h.s.q.q.q.3.S S 7 A A >._ _ _ _ . . . . . . . . . . . . . . . . ",
"  . . . . . . . . . . . . . a *.@.; ; ; ; ; w O $ u.e.9.9.a.a.e.e.q.7.7.7.3.; A i i *.>.. . . . . . . . . . . x.x.. . . . . . . ",
"  . . . . . . . . . . . . . . . # $ O O % % O O $ u.e.u.9.0.0.4.4.c.v.b.7.n.j j j j j j . . . . . . . . . . . . m.M.. . . . . . ",
"  . . . . . . . . . . . . . . . . . o @ O O @ o . u.e.9.9.u.u.7.7.c.N.b.7.n.. . . . . . . . . . . . F F . . . . B.G F . . . . . ",
"  . . . . . . . . . . . . . . . . . X o O O o X . u.e.9.9.a.a.N.N.N.N.b.7.n.. . . . . . . . . . . # G G # . . . V.I F . . . . . ",
"  . . . . . . . . . . . . . . . . . . . $ $ . . . u.e.9.9.a.a.N.N.N.N.C.7.n.. . . . . . . . F F F G $.$.G F . . Z.A.S.. . . . . ",
"  . . . . . . . . . . . . . . . . . . . # # . . . u.e.9.9.a.a.N.N.D.7.7.a.n.. . . . . . . # G G . I ,.,.I F . . . . . . . . . . ",
"  . . . . . . . . . . . . . . . . . . . . . . . . u.e.9.9.7.7.D.D.c.c.b.a.n.. . . . . . F G $.$.%.G F.,.I F . . . . . . . . . . ",
"+ . . . . . . . . . . . . . . . . . . . . . . . . u.e.9.9.7.7.7.7.c.N.C.a.n.. . . . . . F I ,.,.G %.F.,.I F . . . . . . . . . . ",
"  . . . . . . . . . . . . . . . . . . . . . . . . u.e.4.4.0.0.7.7.c.N.b.a.n.. . . . . . F I ,.F.%.G ,.,.I F . . . . . . . . . . ",
"  . . . . . . . . . . . . . . . . . . . . . . . . u.e.7.7.0.e.7.a.c.N.b.a.n.. . . . . . F I ,.F.G %.$.$.G F . . . . . . . . . . ",
"  . . . . . . . . . . . . . . . . . . . . . . . . e.e.9.9.a.7.N.G.v.v.b.a.n.. . . . . . F I ,.,.I . G G # . . . . . . . . . . . ",
"  . . . . . . . . . . . . . . . . . . . . . . . . u.e.e.0.4.7.v.v.v.G.b.a.n.. . . . . . F G $.$.G F F F . . . . . . . . . . . . ",
"  . . . . . . . . . . . . . . . . . . . . . . i.e.u.e.7.7.9.u.G.G.H.7.c.N.c.a.J.. . . . . # G G # . . . . . . . . . . . . . . . ",
"  . . . . . . . . . . . . . . . . . . . . . . u.e.u.e.7.7.u.u.G.G.H.7.K.G.K.a.J.. . . . . . F F . . . . . . . . . . . . . . . . ",
"  . . . . . . . . . . . . . . . . . . . L.u.e.u.u.u.e.7.7.7.7.e.e.q.7.7.7.P.7.J.. . . . . . . . . . . . . . . . . . . . . . . . ",
"  . . . . . . . . . . . . . . . . . I.U.Y.u.u.u.e.h.h.7.7.7.7.q.q.T.R.P.7.P.C.K.U.U.. . . . . . . . . . . . . . . . . . . . . . ",
"  . . . . . . . . . . . . . . . . . E.u.e.u.e.e.e.7.7.7.7.7.a.N.N.G.G.b.P.b.N.c.u.h.. . . . . . . . . . . . . . . . . . . . . . ",
"  . . . . . . . . . . . . . . . 3.3.u.e.s.4.4.4.4.7.7.0.0.a.4.h.h.h.h.q.7.P.P.7.e.u.E.E.. . . . . . . . . . . . . . . . . . . . ",
"  . . . . . . . . . . . . . . . i.u.e.e.s.a.a.a.a.a.4.u.9.7.7.e.e.e.e.s.a.P.7.q.9.e.e.W.. . . . . . . . . . . . . . . . . . . . ",
"  . . . . . . . . . . . . . . . . . . . . . . . &.G ,.4.7.&.. . . . . . . . . . . . . . . . . . . . . . . . . . . . . . . . . . ",
"+ . . . . . . . . . . . . . . . F F G G F F F Q.F F Q.F F F F # . # . . . . . . G F F F %.# # F # F F G F %.F F F G G F G F G F ",
"  . . . . . . . . . . . . . . . F G F F G F F F F F F F F Q.!.# # . . . . . . . F F G F $ $ $ G F G F F F G F G F F $ F F F G F "
};
