/* XPM */
static char *e882a25925a24ca1b6fdf055b7a01bf0ikAP52HHtZSvFH2f[] = {
/* columns rows colors chars-per-pixel */
"64 64 234 2 ",
"   c #761528",
".  c #78202A",
"X  c #7C2334",
"o  c #792937",
"O  c #653539",
"+  c #7B3139",
"@  c #793B3C",
"#  c #1D593C",
"$  c #235E3D",
"%  c #2A643D",
"&  c #366B3A",
"*  c #1E704A",
"=  c #266C44",
"-  c #346749",
";  c #267047",
":  c #27764A",
">  c #29774A",
",  c #2C794B",
"<  c #287146",
"1  c #327E49",
"2  c #2F7A50",
"3  c #347D53",
"4  c #387F56",
"5  c #387F59",
"6  c #3D6953",
"7  c #7B5658",
"8  c #487556",
"9  c #446E54",
"0  c #79615B",
"q  c #6E6051",
"w  c #697D67",
"e  c #78756A",
"r  c #796D67",
"t  c #B71A1F",
"y  c #991B29",
"u  c #981E34",
"i  c #86192B",
"p  c #A51E29",
"a  c #A91C29",
"s  c #BD1D25",
"d  c #B41F2D",
"f  c #B81D28",
"g  c #AA1E31",
"h  c #B11F32",
"j  c #86282D",
"k  c #9D232D",
"l  c #91262E",
"z  c #842B35",
"x  c #912534",
"c  c #9D2434",
"v  c #9C2B33",
"b  c #9D2B3A",
"n  c #982638",
"m  c #88323A",
"M  c #96323B",
"N  c #A2232C",
"B  c #AB242C",
"V  c #AC2628",
"C  c #B3242C",
"Z  c #BD232B",
"A  c #B2282E",
"S  c #BC2528",
"D  c #A42432",
"F  c #AA2432",
"G  c #A42B35",
"H  c #A32C3B",
"J  c #A92B3B",
"K  c #AB2A34",
"L  c #B32433",
"P  c #BB2432",
"I  c #B42A34",
"U  c #BD2933",
"Y  c #B92C3F",
"T  c #A3323C",
"R  c #B43139",
"E  c #B93339",
"W  c #C41C24",
"Q  c #C31E2C",
"!  c #CC1F29",
"~  c #CC1D26",
"^  c #D01F27",
"/  c #C42427",
"(  c #CC2226",
")  c #C5232C",
"_  c #CA232B",
"`  c #C3292D",
"'  c #CB2A2D",
"]  c #D2262D",
"[  c #C32331",
"{  c #CA2432",
"}  c #C32A33",
"|  c #CC2A33",
" . c #C72E3A",
".. c #D22633",
"X. c #D42B34",
"o. c #D72B37",
"O. c #C2323C",
"+. c #CD3237",
"@. c #D43236",
"#. c #D4333B",
"$. c #DC353E",
"%. c #DC3A3D",
"&. c #D23A39",
"*. c #E1363E",
"=. c #E23A3E",
"-. c #E12F3F",
";. c #9E2B42",
":. c #8A3C42",
">. c #933243",
",. c #A93644",
"<. c #BC3D44",
"1. c #BA3A45",
"2. c #A13C53",
"3. c #A12D40",
"4. c #CB3243",
"5. c #C63A46",
"6. c #DC3641",
"7. c #D53A43",
"8. c #DC3C44",
"9. c #D53E4A",
"0. c #DD3E4A",
"q. c #D73245",
"w. c #D73E50",
"e. c #E33643",
"r. c #E43C44",
"t. c #EA3D46",
"y. c #E43D49",
"u. c #EA3C49",
"i. c #E7364A",
"p. c #EE3F52",
"a. c #875253",
"s. c #965A5A",
"d. c #8E4750",
"f. c #A6474B",
"g. c #BD4246",
"h. c #BE434C",
"j. c #BD4A4B",
"k. c #AD4352",
"l. c #BC4B56",
"z. c #B65659",
"x. c #85675D",
"c. c #9A685F",
"v. c #955F63",
"b. c #AE5F64",
"n. c #8B6E6A",
"m. c #8A6B65",
"M. c #956966",
"N. c #84776D",
"B. c #91796A",
"V. c #877872",
"C. c #997A72",
"Z. c #A36A62",
"A. c #A46761",
"S. c #B6756E",
"D. c #A87974",
"F. c #C24346",
"G. c #C4434B",
"H. c #C9454A",
"J. c #DE4145",
"K. c #D3424B",
"L. c #DB424A",
"P. c #DD4A4A",
"I. c #DE4552",
"U. c #D74C52",
"Y. c #D34F56",
"T. c #E34145",
"R. c #E3434B",
"E. c #EA424D",
"W. c #E9464B",
"Q. c #EA4452",
"!. c #E44C53",
"~. c #EA4E5A",
"^. c #E54854",
"/. c #F34756",
"(. c #EC535B",
"). c #E55657",
"_. c #F1575F",
"`. c #C55868",
"'. c #E95B64",
"]. c #F35F63",
"[. c #F85D68",
"{. c #ED6364",
"}. c #F46265",
"|. c #F5646A",
" X c #FB646C",
".X c #FA6B6E",
"XX c #FE706F",
"oX c #FD6670",
"OX c #F46C72",
"+X c #FD6D74",
"@X c #FF6F7A",
"#X c #F47274",
"$X c #FD7376",
"%X c #F57379",
"&X c #FD737B",
"*X c #FB7A7C",
"=X c #F77C7B",
"-X c #EF6F72",
";X c #CD6775",
":X c #3C8248",
">X c #35804D",
",X c #3C8259",
"<X c #36805A",
"1X c #488E47",
"2X c #478442",
"3X c #4D9247",
"4X c #539646",
"5X c #5A9E47",
"6X c #42835B",
"7X c #49875B",
"8X c #568C5E",
"9X c #639E55",
"0X c #6D9E5B",
"qX c #638C58",
"wX c #4B8561",
"eX c #538664",
"rX c #538964",
"tX c #5B8467",
"yX c #628B6D",
"uX c #6B8B6D",
"iX c #67866A",
"pX c #77866D",
"aX c #688B70",
"sX c #718D71",
"dX c #758473",
"fX c #86826C",
"gX c #8A9A6B",
"hX c #978677",
"jX c #808F79",
"kX c #AA827D",
"lX c #BE857C",
"zX c #90A26B",
"xX c #9A9184",
"cX c #CF8A85",
/* pixels */
",X: : : : : : : : : : : : : : : : : : : : : : : : : : : : : : : : : : : : : : : : : , : $ $ : , : : : : : : : : : : : : : : : : ",
",X: : : : : : : : : : : : : : : : : : : : : : : : : : : : : : : : : : : : : : : : : : = $ $ = : : : : : : : : : : : : : : : : : ",
",X: : : : : : : : : : : : : : : : : : : : : : : : : : : : : : : : : : : : : : : , ; $ $ = = $ $ ; , : : : : : : : : : : : : : : ",
",X: : : : : : : : : : : : : : : : : : : : : : : : : : : : : : : : : : : : : : : , ; $ $ = = $ $ ; , : : : : : : : : : : : : : : ",
",X: : : : : : : : : : : : : : : : : : : : : : : : : : : : : : : : : : : : : : : : : : = $ $ = : : : : : : : : : : : : : : : : : ",
",X: : : : : : : : : : : : : : : : : : : : : : : : : : : : : : : : : : : : : : : : : , : $ $ : , : : : : : : : : : : : : : : : : ",
",X: : : : : : : : : : : : : : : : : : : : : : : : : : : : : : : : : : : : : : : : : : : ; ; : : : : : : : : : : : : : : : : : : ",
",X: : : : : : : : : : : : : : : : : : : : : : : : : : : : : : : : : : : : : : : : : : : , , : : : : : : : : : : : : : : : : : : ",
",X: : : : : : : : : : : : : : : : : : : : : : : : : : : : : : : : : : : : : : : : : : : : : : : : : : : : : : : : : : : : : : : ",
",X: : : : : : : : : : : : : : : : : : : : : : : : : 2 , , > , , , , >X1 , , , , , , 2 , , 2 , , : : : : : : : : : : : : : : : : ",
",X: : : : : : : : : : : : : : : : : : : : : : : C.k.<.F.G.G.g.g.g.F.F.G.F.F.F.G.g.<.<.R N G l j . yX: : : : : : : : : : : : : : ",
",X: : : : : : : : : : : : : : : : : : : : : : : C.1.J.r.r.r.R.8.%.r.R.8.8.8.8.8.8.0.0.+.| [ B F n aX: : : : : : : : : : : : : : ",
",X: : : : : : : : : : : : : : : : : : : : : : : S.1.0.y.i.p.y.0.L.0.0.J.T.r.r.r.r.8.8.+.}  .J c   aX: : : : : : : : : : : : : : ",
",X: : : : : : : : : : , 1 1 , : : : : : : yX`.`.OX|.$X[.r.T.R.XXXX].P.T.T.t.t.e...Q ) f C v s.6X3 n.2.2.r : : : : : : : : : : : ",
",X: : : : : : : : : : 1 1X1X1 : : : : : : uX9.K.[.@X%X|.u.y.L.$X#X].L.8.-.Q.e.R.] ( _ C B n s.: : V.;.3.m.: : : : : : : : : : : ",
",X: : : : : : : : : : 1 4X4X1 : : : : : : uX0.L.[.&X%X|.u.0.I.&X&X[.L.T.e.9.4.U.| ) Z V ,.i a.: : n.u b n.: : : : : : : : : : : ",
",X: : : : : : : : : : 1 4X4X1 : : : : : : sXy.y.}.$X$X|.y.8.7.(.(.E.X.X.E gXpXw gXzXzXgXyXiXpXB.B.f.D J M.: : : : : : : : : : : ",
",X: : : : : : : : : : 1 3X3X1 : 1 1 , : : sXy.y.}.$X$X|.r.r.T.r.r.e...{ T 2X& & 4X5X4X2X1 : ,XO.) } F D n.: : : : : : : : : : : ",
",X: : : : : : : : : : 1 3X4X1 , 1X1X1 : : sXK.K.{.$X#X|.y.r.r.r.E.4.L J i & 2X4X5X4X& % < : iXf #.V N H M.: : : : : : : : : : : ",
",X: : : : : : : : : : 1 4X4X, rX0X0X8XwXrXcXU.H.'.*X=XOX6.e.E.e.Q.1.f.a.7 % 2X4X9XqX8 6 8 rXhXs ` B N v n.: : : : : : : : : : : ",
",X: : : : : : : : : : 1 4X4X1 ,.w.9.K.K.9.9.&XOX&X$X*X|.Q ! ( | U Z.5 : ; = % % f.9.L.} O.f f | U B g F m.: : : : : : : : : : : ",
",X: : : : : : : : : : 1 1X1X, ,.R.y.J.J.L.!.OX*X#X#X$X[.Q ! _ ) P C.3 : , : # # ,.0.E.X._ ! W W ) C D b n.: : : : : : : : : : : ",
",X: : : : : : : : : : , kXkXlX'.}.}.}.}.].(.(.^.).).!.R.) W ' t d C.,X: : hXD.S.K.R.r.t.y.$.@._ _ C D b M.: : : : : : : : : : : ",
",X: : : : : : : : : : , k.,.1..X&X&X&X$X&X X#.r.+.&.%.8.| ' S S L C.,X: > ,.5.<.8.r.=.*.E.E.%.' _ C D b M.: : : : : : : : : : : ",
",X: : : : : : : : : : ,X5.L.9.OX&X%X%X%X$X}.7.r.r.r.=.#.Q ) U B J V.4 : , G.T.r.p.u.r.r.r.%.8.` / d g F n.: : : : : : : : : : : ",
",X: : : : : : : : : : ,XH.y.R. X+X+X+X+X+X_.7.8.6.8.%.#.) _ Z B J N.3 : , G.J.r.~.Q.W.=.r.=.r.) _ P d I M.: : : : : : : : : : : ",
"5 : : : : : : : : : : ,XH.r.E.6.y.u.r.r.r.6.Q Q Q { ) ( ! ( S N b N.3 : , G.r.r.&X=X=X!.r.=.r._ ( [ [ U M.: : : : : : : : : : : ",
"7X1 > : : : : : : : : ,XH.r.y.6.0.L.8.r.r.%.) ) ) { _ ( ! Q U v >.N., : > G.r.E.&X#X$XE.r.=.r._ ^ { { } Z.: : : : : : : : : : : ",
"9X1X, * : : : : : : : 4 F.R.6.Q.7.L.6.t.*.r.| ) t  .U ) ) U K z o e : : 5 G.$.$.&X&X+X/.r.r.$._ ~ _ _ ` Z.: : : : : : : : : : : ",
"9X1X:X, > : : : > > : 4 F.8.8.$X+X$X^.r.r.=./ S ` C K B B v m 3 : : : : , H.t.y.&X=X*XU.T.T.6._ ( ) ( ` Z.: : : : : : : : , 1 1 ",
"6X:X3X3X1 : : : : : : 4 G.0.9.$X#X&X(.r.y.6.[ U P h G F H M d.> : : : : 3 G.T.8.&X-X-X).r.T.$._ ! ) ( ` c.: : : : : : : : 1 1X4X",
"6X:X3X3X1 : : : : : : 4 H.y.9.oX X XQ.y.K.R z.b.M.v.c.s.s.m.r : : : wXtXxXY.P.U.+X XoX0.$.=.$._ ! ) ( ` c.: : : : : : : : 1 1X4X",
"9X1X:X, > : : : : : : 4 H.E.8.~.8.8.X.| B Z.rXrX6X,XwXwX7X6X6X: : yXm.`.;XOXXX$X'.0.Q..._ @.X._ ! ) _ ` c.: : : : : : : : , 1 1 ",
"9X1X, * : : : : : : : 4 G.y.r.t.r.r.) { G m., : : : : : : : : : : jXl.y.9.&X+X&XL.6.r.] ( / / / W / {  .A.: : : : : : : : : : : ",
"7X1 > : : : : : : : : 4 G.y.r.t.y.Q.5.J z e : : : : : : : : : : 4 xX`.L.!.+X+XoXR.r.r.] ! ( ) ) ) R G T M.: : : : : : : : : : : ",
"<X: : : : : : : : : : 4 G.R.r.t.e.9.uX: : : : : e X x H j.G.5.H.h.'.@X+X+X9.L.R.$.r.r.| ) ( ( ) | pX: : : : : : : : : : : : : : ",
",X: : : : : : : : : : 4 G.L.r.t.Q.^.eX: : : : : r   k I K.0.u.E.5.).&X+X+X7.8.y.$.r.r._ ) ( ( ( ) pX: : : : : : : : : : : : : : ",
",X: : : : : : : : : : 4 h.8.r.*.y.I.eX: : : > : x.j B U P.J.%.W.&.).$X&X|.8.6.E.*.E.r.@./ ] ( ) [ uX: : : : : : : : : : : : : : ",
",X: : : : : : : : : : 3 h.0.r.X.| O.eX> , eXa.a.h.K.9.~.&X&XOX XoX'.I.!.R.6.r.r._ X.| ) _ ( _ +. .sX: : : : : : : : : : : : : : ",
",X: : : : : : : : : : 4 G.R.T._ ) C eX> ; eX;.k 7.q.y.~.&X%X#X$X@X[.0.y.r.r.r.T./ / W W ~ ! W { 4.sX: : : : : : : : : : : : : : ",
",X: : : : : : : : : : 4 5.0.J.) ) C eX: $ 8 H p ^.E.r.~.&X&X#X=X+X[.Q.t.r.r.r.T./ ( ( ( ! _ ) d L uX: : : : : : : : : : : : : : ",
",X: : : : : : : : : : 4 E #.#.Z f L 7X= $ 9 n G 5.L.%.J.[._.(.).{.!.8.o.o.X.@.$.W _ _ ( +.B j.hXxX3 : : : : : : : : : : : : : : ",
",X: : : : : : : : : : 3 a | | p y T - $ = tX,.k 4.0.r.y.u.y.y.y.T.%.) ) ) ( ( ( ~ ( s ' ` R M., : : : : : : : : : : : : : : : : ",
",X: : : : : : : : : : 3 N I 5.k c x 6 $ < tXp U q.Q.t.u.u.u.u.t.t.r.o.) ) / / s ' s #.f U y x.: : : : : : : : : : : : : : : : : ",
",X: : : : : : : : : : 3 v K K :.z :.tX= - N.B O.q.y.*.*.6.6.6.$.$.$.X./ / / / S ` f O.G.M :.e : : : : : : : : : : : : : : : : : ",
",X: : : : : : : : : > 3 x J i : : : 0 x k N } ) ..! _ _ _ _ _ _ _ _ _ ( ( ( ( | B v l uX: : : : : , 1 1 , : : : : : : : : : : : ",
",X: : : : : : : : : : > X 3.  : : : 0 c N I ) ) ) ) ) _ ) ( ( ( ! ! Q W X.+.| [ Y u ,.tX: : : : : 1 1X1X1 : : : : : : : : : : : ",
",X: : : : : : : : : : : e pXN.dXiXiXd.c N K A A A L U [ ) ) _ _ _ ) [ B G fXfXpXpXw iX4 : , 1 1 : 1 4X4X1 : : : : : : : : : : : ",
",X: : : : : : : : : : : : : : X ;.;.n g a K F F F F F P [ _ _ _ [ [ P G . : : : : : : : : 1 1X1X, 1 3X4X1 : : : : : : : : : : : ",
",X: : : : : : : : : : : : : :   n n x F K D c c c c D L U [ ) ) Z P L b o : > : : : : : : 1 4X4X1 , 3X4X1 : : : : : : : : : : : ",
",X: : : : : : : : : : : : : : O m @ O @ @ + + + + + + m M T v v M m m + O : : : : : : : : 1 4X3X, 1 4X4X1 : : : : : : : : : : : ",
",X: : : : : : : : : : : : : : : : : : : : : : : : : : : : : : : : : : : : : : : : : : : : 1 4X3X1 , 1X1X1 : : : : : : : : : : : ",
",X: : : : : : : : : : : : : : : : : : : : : : : : : : : : : : : : : : : : : : : : : : : : 1 4X4X1 : 1 1 , : : : : : : : : : : : ",
",X: : : : : : : : : : : : : : : : : : : : : : : : : : : : : : : : : : : : : : : : : : : : 1 1X1X1 : : : : : : : : : : : : : : : ",
",X: : : : : : : : : : : : : : : : : : : : : : : : : : : : : : : : : : : : : : : : : : : : , 1 1 , : : : : : : : : : : : : : : : ",
",X: : : : : : : : : : : : : : : : : : : : : : : : > 1 1 > : : : : : : : : : : : : : : : : : : : : : : : : : : : : : : : : : : : ",
",X: : : : : : : : : : : : : : : : : : : : : : : * , 3X3X, * : : : : : : : : : : : : : : : : : : : : : : : : : : : : : : : : : : ",
",X: : : : : : : : : : : : : : : : : : : : : : > , :X3X3X:X, > : : : : : : : : : : : : : : : : : : : : : : : : : : : : : : : : : ",
",X: : : : : : : : : : : : : : : : : : : : : : 1 3X3X1 1 1X1X1 : : : : : : : : : : : : : : : : : : : : : : : : : : : : : : : : : ",
",X: : : : : : : : : : : : : : : : : : : : : : 1 3X3X1 1 1X1X1 : : : : : : : : : : : : : : : : : : : : : : : : : : : : : : : : : ",
",X: : : : : : : : : : : : : : : : : : : : : : > , :X1X1X:X, > : : : : : : : : : : : : : : : : : : : : : : : : : : : : : : : : : ",
",X: : : : : : : : : : : : : : : : : : : : : : : * 1 4X4X1 * : : : : : : : : : : : : : : : : : : : : : : : : : : : : : : : : : : ",
",X: : : : : : : : : : : : : : : : : 1 1 : : : :X: : :X: : : : , : , : : : : : : 1 : : : , > , : , : : 1 : , : : : 1 1 : 1 : 1 : ",
",X: : : : : : : : : : : : : : : : 1 : : 1 : : : : : : : : :Xq , , : : : : : : : : : 1 : = = ; 1 : 1 : : : 1 : 1 : : ; : : : 1 : "
};
