/* XPM */
static char *ec2be00cf0b94fbcb5a562345a016e83CUWAvQMdt9KYHWfc[] = {
/* columns rows colors chars-per-pixel */
"64 64 209 2 ",
"   c #020101",
".  c #090607",
"X  c #0D0B0B",
"o  c #070607",
"O  c #100E0F",
"+  c #110F10",
"@  c #110E19",
"#  c #151414",
"$  c #181516",
"%  c #1D1B1C",
"&  c #161619",
"*  c #201E1E",
"=  c #271A16",
"-  c #1F2116",
";  c #23221E",
":  c #2B201B",
">  c #1F1D22",
",  c #221F20",
"<  c #241F27",
"1  c #1E2320",
"2  c #232223",
"3  c #292425",
"4  c #2C2B2C",
"5  c #272B28",
"6  c #302D2E",
"7  c #353334",
"8  c #393739",
"9  c #3D3C3C",
"0  c #383E39",
"q  c #33372E",
"w  c #5E3E1A",
"e  c #4B371E",
"r  c #673C09",
"t  c #643D16",
"y  c #433E3D",
"u  c #4E3E28",
"i  c #1D593C",
"p  c #3D423D",
"a  c #235E3D",
"s  c #784807",
"d  c #6D4710",
"f  c #5C4226",
"g  c #45453D",
"h  c #5B4C3A",
"j  c #664B2C",
"k  c #685337",
"l  c #7F7B34",
"z  c #3C3D41",
"x  c #433E43",
"c  c #1E704A",
"v  c #266C45",
"b  c #267047",
"n  c #27764A",
"m  c #2B7949",
"M  c #287146",
"N  c #327E49",
"B  c #357E55",
"V  c #367F59",
"C  c #444444",
"Z  c #434349",
"A  c #4B4B4B",
"S  c #484847",
"D  c #514D4B",
"F  c #46544C",
"G  c #4A564E",
"H  c #58594D",
"J  c #4A5953",
"K  c #555555",
"L  c #585657",
"P  c #555A57",
"I  c #5C5B56",
"U  c #5B5B5B",
"Y  c #53585D",
"T  c #67594A",
"R  c #615D5E",
"E  c #635954",
"W  c #556558",
"Q  c #4C6055",
"!  c #595B65",
"~  c #615F60",
"^  c #597C67",
"/  c #5B7C69",
"(  c #577B67",
")  c #586C61",
"_  c #626162",
"`  c #6C6C6C",
"'  c #696963",
"]  c #6D6E74",
"[  c #716F70",
"{  c #737373",
"}  c #7B7B7B",
"|  c #787778",
" . c #63786D",
".. c #6E6051",
"X. c #8A5817",
"o. c #8C5614",
"O. c #B2751D",
"+. c #B57414",
"@. c #AF7219",
"#. c #87663C",
"$. c #9A6D28",
"%. c #A97426",
"&. c #B47727",
"*. c #A46E26",
"=. c #807E7E",
"-. c #3C8248",
";. c #3C8359",
":. c #398257",
">. c #488E47",
",. c #4F9447",
"<. c #539646",
"1. c #448659",
"2. c #639F55",
"3. c #468663",
"4. c #4A8765",
"5. c #4B8866",
"6. c #4A8966",
"7. c #56886A",
"8. c #599163",
"9. c #688569",
"0. c #659964",
"q. c #638C72",
"w. c #7D827E",
"e. c #63987A",
"r. c #8C893C",
"t. c #B7B33C",
"y. c #B6AB1D",
"u. c #D7963A",
"i. c #CF8E3E",
"p. c #CCC622",
"a. c #CFC92D",
"s. c #C4C439",
"d. c #C4C718",
"f. c #928D48",
"g. c #8D8A52",
"h. c #B6B64E",
"j. c #84857D",
"k. c #9C9673",
"l. c #A39E67",
"z. c #A19D79",
"x. c #A9A46B",
"c. c #A5A374",
"v. c #A9A573",
"b. c #A8A57C",
"n. c #B0A86A",
"m. c #D89842",
"M. c #BCC04F",
"N. c #E9E656",
"B. c #EAE64F",
"V. c #DDD973",
"C. c #E7E578",
"Z. c #EAE56F",
"A. c #C8C552",
"S. c #817F80",
"D. c #838283",
"F. c #8B8B8B",
"G. c #86848A",
"H. c #9B9B8C",
"J. c #93948E",
"K. c #959595",
"L. c #989697",
"P. c #9B9B95",
"I. c #99979A",
"U. c #97999B",
"Y. c #9B9B9B",
"T. c #969797",
"R. c #A19E9E",
"E. c #A39D93",
"W. c #A29D89",
"Q. c #9DA19B",
"!. c #85A590",
"~. c #A6A585",
"^. c #A6A698",
"/. c #BFBA94",
"(. c #9C9BA1",
"). c #9995A2",
"_. c #A29EA1",
"`. c #9EA1A1",
"'. c #9CB2A6",
"]. c #A2A2A2",
"[. c #ACAAAB",
"{. c #A4A6A7",
"}. c #B8B8B8",
"|. c #AEB8AA",
" X c #C5BE92",
".X c #C1BBA5",
"XX c #A7C0B2",
"oX c #D9D691",
"OX c #E2DDB5",
"+X c #E4E1AC",
"@X c #C5C5C5",
"#X c #CDCCCD",
"$X c #C8C7C7",
"%X c #DAD6C8",
"&X c #CED1D1",
"*X c #D6D6D6",
"=X c #D3D3D3",
"-X c #D8D5D7",
";X c #D9D9D4",
":X c #D9D7D9",
">X c #D6D9D9",
",X c #DADADA",
"<X c #DDDDDD",
"1X c #DCDCDC",
"2X c #D6D9D6",
"3X c #E0DDDF",
"4X c #DDDDE3",
"5X c #E2DEE2",
"6X c #E2E2E3",
/* pixels */
";.n n n n n n n n n n n n n n n n n n n n n n n n n n n n n n n n n n n n n n n n n m b a a b m n n n n n n n n n n n n n n n n ",
";.n n n n n n n n n n n n n n n n n n n n n n n n n n n n n n n n n n n n n n n n n b v a a v b n n n n n n n n n n n n n n n n ",
";.n n n n n n n n n n n n n n n n n n n n n n n n n n n n n n n n n n n n n n n m b a a v v a a b m n n n n n n n n n n n n n n ",
";.n n n n n n n n n n n n n n n n n n n n n n n n n n n n n n n n n n n n n n n m b a a v v a a b m n n n n n n n n n n n n n n ",
";.n n n n n n n n n n n n n n n n n n n n n n n n n n n n n n n n n n n n n n n n n b v a a v b n n n n n n n n n n n n n n n n ",
";.n n n n n n n n n n n n n n n n n n n n n n n n n n n n n n n n n n n n n n n n n m b a a b m n n n n n n n n n n n n n n n n ",
";.n n n n n n n n n n n n n n n n n n n n n n n n n n n n n n n n n n n n n n n n n n n b b n n n n n n n n n n n n n n n n n n ",
";.n n n n n n n n n n n n n n n n n n n n n n n n n n n n n n n n n n n n n n n n n n n m m n n n n n n n n n n n n n n n n n n ",
";.n n n n n n n n n n n n n n n n n n n n # * 2 % % F n 7.2 % * 2 * , % ;.n   2 2 % * F n n n n n n n n n n n n n n n n n n n n ",
";.n n n n n n n n n n n n n n n n n n n n # * U R ~ ) 5.w.U U _ _ ~ _ ' 7.5.W ' U _ 2 G n n n n n n n n n n n n n n n n n n n n ",
";.n n n n n n n n n n n n n n n n n n n n % # 6X,X1X'.5 G.*X*X*X*X,X,X*XK & XX*X:X=X% G n n n n n n n n n n n n n n n n n n n n ",
";.n n n n n n n n n n n n n n n n n n n n % # 1X,X,X@X& D.*X1X,X,X*X1X,XS & *X*X*X=X% J n n n n n n n n n n n n n n n n n n n n ",
";.n n n n n n n n n n n n n n n n n n n n % # 1X1XY.T.U } Y.Y.Y.Y.Y.}.,X{ U R.Y.Y.Y.% F n n n n n n n n n n n n n n n n n n n n ",
";.n n n n n n n n n n m N N m n n n n n n % # 1X1XT.T.U } Y.Y.Y.Y.Y.[.,X{ R Y.Y.Y.L.% G m n n n n n n n n n n n n n n n n n n n ",
";.n n n n n n n n n n N >.>.N n n n n n n % # 1X1XY.Y.Y.Y.Y.Y.Y.Y.].Y.Y.Y.Y.Y.Y.Y.L.% J N n n n n n n n n n n n n n n n n n n n ",
";.n n n n n n n n n n N <.<.N n n n n n n % # 1X1XY.Y.Y.Y.Y.Y.Y.Y.Y.Y.Y.T.Y.Y.Y.Y.L.% J N n n n n n n n n n n n n n n n n n n n ",
";.n n n n n n n n n n N <.<.N n n n n n n % # 3X3XY.Y.Y.Y.Y.Y.Y.Y.Y.Y.Y.Y.Y.Y.Y.Y.Y.* W N n n n n n n n n n n n n n n n n n n n ",
";.n n n n n n n n n n N ,.,.N n N N m n n % # 1X,XY.Y.Y.Y.Y.Y.Y.Y.Y.Y.Y.Y.Y.].Y.Y.Y., G N n n n n n n n n n n n n n n n n n n n ",
";.n n n n n n n n n n N ,.<.N m >.>.N n n % # 6X1XY.Y.Y.Y.Y.Y.Y.Y.Y.Y.Y.Y.Y.Y.Y.T.Y.% G M n n n n n n n n n n n n n n n n n n n ",
";.n n n n n n n n n n N <.,.m N <.<.N n n % % 4 2 U U U U U U U U U U U U U U U 2 6 % S v m n n n n n n n n n n n n n n n n n n ",
";.n n n n n n n n n n N <.<.N m ,.<.N n n X + O X U ~ U U U U U I U U I U U _ ~ # # + F n n n n n n n n n n n n n n n n n n n n ",
";.n n n n n n n n n n N >.>.m N ,.<.N n n n n n n # 7 G.G.G.G.G.G.D.G.G.G.G.# o i a b m n n n n n n n n n n n n n n n n n n n n ",
";.n n n n n n n n n n m N N n N <.<.N n n n n n n % 4 } } D.D.D.D.D.D.D.D.D.+   v b n n n n n n n n n n n n n n n n n n n n n n ",
";.n ^ & $ . n n . % $ % # # # 5 >.0.X % # n n n n % C *X}.Y.Y.Y.Y.Y.Y.Y.D.D.$ o m m n 3.# , # ;.n   & % # % # $ o n n # & $ 5.n ",
";.n ^ 2 9 6 B B 4 8 8 8 8 8 8 A ;.q.8 3 % n n n n % C ,X}.Y.Y.Y.Y.Y.Y.Y.F.G.#   n n n 3., 9 8 4.B 4 8 9 8 9 8 8 4 B B 0 4 3 4.n ",
";.n / 2 1X3X    1X*X*X*X-X-X-X'.& { *XK % n n n n % C ,X}.Y.Y.Y.Y.Y.Y.Y.Y.].#   n n n 3.2 R.:X8 & :X1X:X:X:X1X#X=XX   e.[.2 6.n ",
"V n ^ 3 #X$X7 7 $X@X@X$X@X@X@X}.9 { @XA % n n 7.7.{ G.#X[.Y.} { { } } Y.].Y.U U 7.7.n 3., L.-XA 9 @X@X@X@X@X@X,X1X8 4 @XL.2 6.n ",
"1.N / , L.Y.U U Y.Y.Y.Y.Y.Y.Y.T.U } Y.9 % n n     ,X=XT.Y.T.8 2 3 2 ` Y.Y.Y.Y.[.# & n 3.* L.,X` U Y.Y.Y.Y.Y.T.,X1XU U Y.| * 6.n ",
"2.>./ 2 ].Y.F.F.].R.Y.R.Y.Y.Y.].T.T.].C 2 n n X o 1X=X{.| C C C C C 9 C F.Y.].Y.% 2 n 3.2 } [.Y.K._.R.Y.Y.Y.Y.{.[.F.F.Y.} 3 4.n ",
"2.>.9.% Y.Y.Y.Y.Y.Y.Y.Y.Y.Y.Y.Y.Y.Y.Y.9 % n n o   ;X&X(.] < S C C C 8 2 K.P.P.Y.# % n 3.* { Y.Y.Y.Y.Y.Y.Y.Y.Y.Y.Y.Y.Y.Y.{ % 7.N ",
"1.-.9.* Y.Y.Y.Y.Y.Y.Y.Y.Y.Y.Y.Y.Y.Y.L.y & n n     -X=XP.' 3 S C A C 8 2 F.R.Y.Y.$ % n 3.2 { Y.Y.Y.Y.Y.Y.Y.Y.Y.Y.Y.Y.Y.Y.} % 0.<.",
"1.-.9.% Y.Y.Y.Y.Y.Y.Y.Y.Y.Y.Y.Y.Y.Y.R.9 & n n     *X=XP.` ; H I I g q - J.Y.Y.(.# % n 3.% [ Y.Y.Y.Y.Y.Y.Y.Y.Y.Y.Y.Y.Y.Y.} % 0.<.",
"2.>.9.2 | ` D.D.D.D.D.G.D.D.D.D.D.{ ` 7 * n n .   ;X%XoXx.g.g.f.f.r.r.l l.l.^.Y.& % n 3.2 U ` D.D.D.D.D.D.D.D.D.D.D.} ` U 5 7.N ",
"2.>.7., % 3 _ U _ U U U U U U U K A * & 2 n n     ;XOXC.B.N.a.p.p.p.p.a.y.t.b.P.# & n 3.% 2 2 L U K U U U U U U U U _ * 3 2 4.n ",
"1.N ;.B B :.% 5 G.} } } | | } } 5 ^ B B B G J } { {.^.~.c.b.v.v.v.x.x.v.c.~.H.P.]  .J W B ;.B 0 4 w.} } } } } } } 4 # B B B n n ",
":.n n n n n   # F.G.D.G.D.D.D.} 2 ^ n n n & , G.D.).P.Y.Y.P.`.Y.(.Y.Y.Y.Y.Y.(.(.} } % F n n n 6 & D.D.G.D.G.} G.G.*   n n n n n ",
";.n n n n n   # D.F.].Y.Y.Y.D.} 2 / n n n % % F.D.D.D.D.D.D.K.Y.Y.Y.K.D.D.D.D.D.D.D.% J n n n 5 2 D.D.Y.(.Y.Y.D.G.%   n n n n n ",
";.n n n n n   # D.D.Y.Y.Y.T.} } % / n n n $ # D.D.D.D.D.D.D.Y.Y.Y.Y.K.D.D.D.D.D.D.D.# F n n n 4 2 G.D.T.Y.Y.Y.} G.*   n n n n n ",
";.n n n n n   & Y.Y.Y.Y.Y.Y.Y.K.U 9   o   D.w.P U U U U K U D.D.D.D.` U U U U K U K F.` o X o U U G.D.Y.Y.Y.T.Y.Y.*   n n n n n ",
";.n n n n n   # ].].Y.Y.Y.K.Y.Y.U S % 2 & } D.U P U U U K U D.D.G.D.{ U U U U U U U D.` 2 3 2 L R G.D.K.Y.Y.Y.].Y.%   n n n n n ",
";.n n n n n   o 5X1X8 C S C Y.Y.U ` D._ L =.G.P K w.G.} { K G.D.G.D.{ U D.D.D.G.U U } } U | G._ U Y.L.` C C 9 Y.Y.*   n n n n n ",
";.n n n n n   O -X6XA S C C ].Y._ [ D.` U D.} U L G.G.G.{ U { D.G.} { U G.G.G.F.U _ D.} U } D.U U [.{.{ A S C Y.{.*   n n n n n ",
";.n n n n n   o 4X6XI I S z P.).U ` D._ U U U U U Y.Y.Y.} U U U U U U U K.Y.Y.Y.K U U U U } D._ U 1X:XJ.P p p ^._.%   n n n n n ",
";.n n n n n   o 1X%Xb.x.r.g.Y.P.U ` G.{ { { { { { Y.Y.Y.F.{ { { { { { { Y.Y.Y.Y.` { { { { D.G._ U 5X;X.Xn.f.g.E.Q.%   n n n n n ",
";.n n n n n   o 5XoXV.N.d.s.R.H.! ` D.D.D.D.D.D.D.Y.Y.Y.K.G.D.D.D.D.D.D.Y.Y.Y.Y.D.D.D.D.D.G.D._ U 1X;X+XB.p.s.k.Q.%   n n n n n ",
";.n n n 1 0 !.}.[.^.b.x.n.v.).H.F.} _ } D.Y.Y.Y.Y.Y.Y.Y.} S A S S S S S F.Y.Y.Y.Y.Y.Y.T.D.F.D.U U 1X;X|.c.v.c.E.].%   n n n n n ",
";.n n n   @ 5X1XT.P.J.(.Y.Y.`.Y.(.G.U } D.Y.Y.Y.Y.Y.Y.Y.{ C z C C C C S K.Y.Y.Y.Y.Y.Y.P.D.G.G.U U ,X1X}.Y.Y.T.P.R.%   n n n n n ",
";.n n n o & ;X;XI.Y.0 C 9 g Y.Y.Y.j.I } D.Y.Y.Y.Y.C 9 C S ~ U U U U U U C 9 C 9 T.Y.Y.P.D.{ K #X6XY.T.' z C Z Y.{.].q.  / n n n ",
";.n n n   & 4X;XY.Y.C C S 0 T.P.(.G.U } D.Y.Y.Y.Y.C C S A I U U I I U I A C C 8 ].Y.Y.Y.D.{ U #X*XT.Y.` C g g Y.Y.Y.Y.2 ( n n n ",
";.n n n   # <X:XP.T.Y K C 9 ).Y.Y.j.U } D.Y.Y.Y.Y.C C J T k h h h h h k D K A z ].Y.Y.T.D.{ U &X,XT.Y.{ D C 0 R.Y.Y.R., ^ n n n ",
";.n n n   # 1X>XU.].R E x y _.P.Y.G.U } D.Y.Y.Y.Y.Z A U j t r t r r d r T I g C Y.Y.Y.Y.D.{ U =X,XT.Y.| _ Z x ).U.Y.Y., ^ n n n ",
";.n n n   # 1X>XT.~.oXV.t.h.P.P.Y.G.U } D.Y.Y.A S Y H f $.m.s r o.i.i.i.d f H K K A Y.T.D.{ U =X,XT.P./.V.h.h.z.P.Y.Y., ^ n n n ",
";.n n n   $ 4X>XT.c.C.Z.s.M.L.Y.Y.j.I } D.Y.Y.9 C U T t *.m.s t s u.m.u.s w E I C C Y.I.D.{ U =X*XY.P. XZ.s.A.b.(.Y.Y., ^ n n n ",
";.n n n   # 1X>XT.H.W.k.z.z.P.Y.).G.U } D.Y.Y.9 C H T t $.u.s r s +.@.+.s w T I C C Y.Y.D.{ U =X*XY.Y.H.z.z.b.H.Y.Y.Y., ^ n n n ",
";.n n n   # <X:XL.Y.(.Q.Y.Y.(.P.Y.j.U } D.Y.Y.9 C P T t $.u.o.r s %.&.O.s t T I C C Y.L.D.{ U =X*XY.Y.Y.Y.(.Y.Y.P.Y.Y.* ^ n n n ",
";.n n n   # 1X>XY.Y.Y.Y.Y.Y.Y.Y.Y.D.U } D.Y.Y.9 C P k r o.O.%.%.*.r X.O.s w T U Z C P.U.D.{ U &X*XY.Y.Y.Y.Y.Y.Y.P.Y.Y., ( n n n ",
";.n n n   # 1X>XT.Y.Y.Y.Y.Y.Y.Y.Y.G.U } D.Y.Y.C Z ! T t X.&.O.O.%.r X.O.s w T R S C Y.I.D.{ U &X2XY.Y.Y.Y.Y.Y.Y.Y.Y.Y.2 ( n n n ",
";.n n n   # 1X,XY.Y.Y.Y.Y.Y.Y.Y.Y.G.U } D.Y.Y.9 C U T w X.&.+.O.%.r X.O.s t E R S C Y.I.D.{ U #X*XY.Y.Y.Y.Y.Y.Y.Y.Y.Y.2 ( n n n ",
";.n n n   & }.}.D.D.=.G.S.S.S.S.D.` A ' ` S.D.9 9 D h u j #.#.#.k e j #.j u D D x S G.D.` _ D [.[.G.D.D.S.D.D.D.S.D.G.2 ( n n n ",
";.n n n   % & # 2 2 % 2 * * * 3 % 2 2 , 2 % % % $ > < : = = = = : ; = = 3 ; * ; 2 , , 2 2 2 2 3 % 2 , 2 % , % * , % & 2 ( n n n ",
";.n n n 4.6.6.3.4.6.6.4.4.4.4.6.4.4.4.4.4.6.4.5.5.8.0.0.8.5.6.4.4.4.4.4.4.4.4.6.6.6.6.4.6.6.4.4.4.6.4.4.4.4.4.4.6.4.4.4.1.n n n ",
";.n n n n n n n n n n n n n n n n n n n n n n n c N <.<.N c n n n n n n n n n n n n n n n n n n n n n n n n n n n n n n n n n n ",
";.n n n n n n n n n n n n n n n n n N N n n n -.n n -.n n n n m n m n n n n n n N n n n m n m n m n n N n m n n n N N n N n N n ",
";.n n n n n n n n n n n n n n n n N n n N n n n n n n n n -.T m m n n n n n n n n n N n v v b N n N n n n N n N n n b n n n N n "
};
