/* XPM */
static char *_28fee7687554a73ded6a49f4a361c21D8XEnLg8XRc8790X[] = {
/* columns rows colors chars-per-pixel */
"64 64 228 2 ",
"   c #261D1D",
".  c #291C17",
"X  c #301D11",
"o  c #1B2A1F",
"O  c #24251D",
"+  c #37261A",
"@  c #1B1D26",
"#  c #231E23",
"$  c #251F2A",
"%  c #1E2426",
"&  c #1A2D23",
"*  c #1E2329",
"=  c #1F2E2C",
"-  c #1E352D",
";  c #232325",
":  c #222329",
">  c #232B2B",
",  c #292928",
"<  c #362525",
"1  c #253B2D",
"2  c #2A372D",
"3  c #393B2A",
"4  c #353728",
"5  c #292831",
"6  c #2C3235",
"7  c #263930",
"8  c #2B3E33",
"9  c #293A3A",
"0  c #343439",
"q  c #353937",
"w  c #4D3418",
"e  c #25442B",
"r  c #2B4536",
"t  c #33443B",
"y  c #334D3D",
"u  c #384535",
"i  c #2E523B",
"p  c #235E3D",
"a  c #2B5837",
"s  c #32513C",
"d  c #39563D",
"f  c #3C4727",
"g  c #32653B",
"h  c #5B451B",
"j  c #41482C",
"k  c #45493A",
"l  c #49563C",
"z  c #565C39",
"x  c #48522C",
"c  c #755935",
"v  c #5C683D",
"b  c #2A3842",
"n  c #2D4543",
"m  c #2C4A42",
"M  c #2C454A",
"N  c #334541",
"B  c #334B43",
"V  c #374A46",
"C  c #2D5744",
"Z  c #335544",
"A  c #335A45",
"S  c #3C5C44",
"D  c #3A534C",
"F  c #335C4A",
"G  c #3B5B4C",
"H  c #3A5445",
"J  c #385755",
"K  c #1E704A",
"L  c #266C45",
"P  c #286F47",
"I  c #3C6C46",
"U  c #3D644E",
"Y  c #3C694C",
"T  c #35674A",
"R  c #267047",
"E  c #27764A",
"W  c #2B764C",
"Q  c #2B794A",
"!  c #31744F",
"~  c #327D49",
"^  c #3B784A",
"/  c #3B6B54",
"(  c #396955",
")  c #357453",
"_  c #397454",
"`  c #397858",
"'  c #366C63",
"]  c #396B64",
"[  c #397262",
"{  c #465C44",
"}  c #415F52",
"|  c #414742",
" . c #41694B",
".. c #486247",
"X. c #45764E",
"o. c #467B4E",
"O. c #436C54",
"+. c #466856",
"@. c #457452",
"#. c #487650",
"$. c #497D52",
"%. c #467A57",
"&. c #567651",
"*. c #556B4F",
"=. c #666B46",
"-. c #766445",
";. c #6D7B46",
":. c #707A48",
">. c #686851",
",. c #627859",
"<. c #6D6A74",
"1. c #815D35",
"2. c #936634",
"3. c #A5743D",
"4. c #A8763A",
"5. c #A37131",
"6. c #977747",
"7. c #886B4A",
"8. c #A67342",
"9. c #3C8249",
"0. c #3C8359",
"q. c #3D8C5E",
"w. c #36805A",
"e. c #3E8C60",
"r. c #488E47",
"t. c #4A884F",
"y. c #4B9047",
"u. c #539646",
"i. c #438B5E",
"p. c #4B8B59",
"a. c #478656",
"s. c #538C58",
"d. c #4D925B",
"f. c #4C9758",
"g. c #519059",
"h. c #529D5E",
"j. c #5A9355",
"k. c #7D8A56",
"l. c #639F55",
"z. c #789C53",
"x. c #4DAB57",
"c. c #4DA35C",
"v. c #4EAB59",
"b. c #51AA57",
"n. c #54A55C",
"m. c #58A35E",
"M. c #52AA5A",
"N. c #58AA57",
"B. c #5EB054",
"V. c #68A958",
"C. c #72AC5C",
"Z. c #76B45A",
"A. c #76A04F",
"S. c #428C61",
"D. c #4A8D66",
"F. c #568B61",
"G. c #4D9964",
"H. c #5A9363",
"J. c #549B63",
"K. c #5A9B64",
"L. c #589A68",
"P. c #4DA361",
"I. c #54A461",
"U. c #5AA262",
"Y. c #53A961",
"T. c #58A961",
"R. c #68A562",
"E. c #6BB472",
"W. c #B1833E",
"Q. c #CC8C33",
"!. c #CC8C3B",
"~. c #CA9537",
"^. c #D19935",
"/. c #CE8F30",
"(. c #DDAC34",
"). c #DEAB3C",
"_. c #DAA539",
"`. c #DFB23B",
"'. c #CBA43E",
"]. c #E3AC3B",
"[. c #E1AB37",
"{. c #E3B336",
"}. c #E4B33A",
"|. c #A98849",
" X c #B99749",
".X c #B98A45",
"XX c #8CB965",
"oX c #9DBE6D",
"OX c #A8B767",
"+X c #AFBC7B",
"@X c #84925B",
"#X c #C29C43",
"$X c #CEA546",
"%X c #DCAB48",
"&X c #87C25B",
"*X c #A8CA5F",
"=X c #A6C669",
"-X c #ADC271",
";X c #BED17E",
":X c #B0C177",
">X c #77BC84",
",X c #8E8D93",
"<X c #82BF87",
"1X c #ADACAF",
"2X c #B0B2B5",
"3X c #98C99C",
"4X c #8BC391",
"5X c #BCCC83",
"6X c #BED083",
"7X c #B7D69C",
"8X c #A9CF8B",
"9X c #9BCCA2",
"0X c #9AD0A5",
"qX c #A8D5B0",
"wX c #C5D497",
"eX c #C0D086",
"rX c #CBDEAC",
"tX c #D7E2B0",
"yX c #C2C3C7",
"uX c #D5D5D9",
"iX c #EFFADE",
"pX c #E9F9EB",
"aX c #F7FEEB",
"sX c #EDFAF4",
"dX c #F3FCF4",
"fX c #F4FCF9",
"gX c #F7FCF4",
"hX c #E1E3E4",
/* pixels */
"0.E E E E E E E E E E E E E E E E E E E E E E E E E E E E E E E E E E E E E E E E E Q E p p E Q E E E E E E E E E E E E E E E E ",
"0.E E E E E E E E E E E E E E E E E E E E E E E E E E E E E E E E E E E E E E E E E E L p p L E E E E E E E E E E E E E E E E E ",
"0.E E E E E E E E E E E E E E E E E E E E E E E E E E E E E E ) G U E E E E E E Q R p p L L p p R Q E E E E E E E E E E E E E E ",
"0.E E E E E E E E E E E E E E E E E E E E E E E E E E E E E E ) 2 q E E E E E E Q R p p L L p p R Q E E E E E E E E E E E E E E ",
"0.E E E E E E E E E E E E E E E E E E E E E U B Z G W E E W H { 6.6.d T E ) B B B T E L p p L E E E E E E E E E E E E E E E E E ",
"0.E E E E E E E E E E E E E E E E E E E E E t . . 4 ! E E W + w '.#XX t E Y . .   Z Q E p p E Q E E E E E E E E E E E E E E E E ",
"0.E E E E E E E E E E E E E E E E E E E  .| 7.6.|.|.z V V l |. X`._.3.7.k =. X|.6.-.N / R R E E E E E E E E E E E E E E E E E E ",
"0.E E E E E E E E E E E E E E E E E E W D , 6..X%X$Xh + + w $X{.{.(.Q.5.+ c %X$X.Xc ; T Q Q E E E E E E E E E E E E E E E E E E ",
"0.E E E E E E E E E E E E E E E E E E E W ! l w 5./.~. X|.W.).{.{.).Q.Q.#X~./.2.w { ! W E E E E E E E E E E E E E E E E E E E E ",
"0.E E E E E E E E E E E E E E E E E E E E E N < 2./.(.`./.^.}.`.{.(./.^.}._.Q.1.; Z E E E E E E E E E E E E E E E E E E E E E E ",
"0.E E E E E E E E E E E E E E E E E E E E E t < 2.Q.(.{.].].}.{.{.`.(.{.{._.Q.1.; Z E E E E E E E E E E E E E E E E E E E E E E ",
"0.E E E E E E E E E E E E E ) _ _ _ _ _ W E A u -.4.^.).{.{.{.{.{.{.{.}.).~.4.-.t T E W _ _ _ _ _ W E E E E E E E E E E E E E E ",
"0.E E E E E E E E E E E E E O.q 0 0 0 0 / E E W k w 4.^.{.{.}.}.}.{.}.)./.2.+ U W E E F 0 q q q q _ E E E E E E E E E E E E E E ",
"0.E E E E E E E E E E Q ~ %.*.3 3 3 3 3 O.` W W B < 3.Q._.].].].[.[.[._.Q.2.# C E W ^ ..4 3 3 3 u @.` W E E E E E E E E E E E E ",
"0.E E E E E E E E E E ~ $., =.OXOXOXOXOXz 5 ) W B < 8.!.!.Q.Q.Q.Q.Q.Q.Q.!.2.# C K T , :.OXOXOXOXOXl 6 ` E E E E E E E E E E E E ",
"0.E E E E E E E E E W a.,.j k.5X;X6X6X6X;.j %._ N < 7.3.8.8.3.3.3.3.3.3.8.c # H ) &.f @XeX5X;X6X5X=.k %.` W E E E E E E E E E E ",
"0.E E E E E E E E E _ ; z :XrXaXgXgXaXaXwX-Xj $ $ $ # .                   : : * % v -XtXaXgXgXgXiXwX+X3 6 ! E E E E E E E E E E ",
"0.E E E E E E E E E _ ; l XX7XdXuX1XuXgX7XXXd 9 y d s y y s s s s s s s s s s N 9 &.XXrXfXyX1XhXpX8XXX8 6 ! E E E E E E E E E E ",
"0.E E E E E E E E E _ : s U.9XsX,X5 ,XsX3Xm.` [ G.I.n.n.n.n.M.M.n.n.n.M.M.n.n.D.( i.n.qXfX<.5 2XpX4XR.7 6 ! E E E E E E E E E E ",
"0.E E E E E E E E E _ : s I.0XsXyX,XyXdX4XM.f.S.c.x.x.x.x.x.v.x.x.x.x.x.M.M.M.f.i.f.n.qXfX1X,XuXpX<XU.1 6 ! E E E E E E E E E E ",
"0.E E E E E E E E E _ : s I.9XpXfXsXfXsX4XM.M.Y.M.x.x.x.x.M.M.M.M.M.M.M.M.M.M.M.M.x.n.qXfXfXfXfXpX<XK.1 6 ! E E E E E E E E E E ",
"0.E E E E E E E E E _ : y m.E.3X9X9X9X9XE.M.M.v.M.M.M.M.M.M.M.M.M.M.M.M.M.M.M.M.x.x.x.>X9X3X3X9X3XE.I.7 6 ! E E E E E E E E E E ",
"0.E E E E E E E E E _ : y U.M.n.n.M.n.n.M.M.n.n.M.M.M.M.M.M.M.M.M.M.M.M.M.M.M.M.M.M.M.M.n.n.b.x.M.x.U.7 6 ! E E E E E E E E E E ",
"0.E E E E E E E E E _ : y U.Y.M.M.M.M.M.v.v.M.M.M.M.M.b.M.M.M.M.M.M.x.x.x.M.M.M.M.M.M.M.n.n.M.x.M.x.U.1 6 W E E E E E E E E E E ",
"0.E E E E E E E E E _ : i n.M.M.M.n.M.M.M.v.M.M.M.M.n.m.M.M.M.M.M.M.M.n.U.I.M.M.b.M.M.M.M.M.M.x.M.x.U.1 6 W E E E E E E E E E E ",
"0.E E E E E E E E E _ : i n.b.M.M.n.M.M.M.b.v.M.M.n.g a h.M.M.M.M.M.M.d.i ^ M.M.b.M.b.M.M.M.M.M.M.M.U.1 6 W E E E E E E E E E E ",
"` E E E E E E E E E ) : i n.M.M.M.n.M.M.M.v.v.x.M.f.e o H.Y.n.n.n.n.n.t.o a T.b.b.b.M.M.M.M.M.M.M.M.m.7 6 W E E E E E E E E E E ",
"p.~ E E E E E E E E ) : i n.M.M.M.n.M.M.M.v.v.M.M.n.g.a.r 8 8 8 r r r s t.f.M.M.b.b.M.M.M.M.M.M.M.M.m.7 6 W E E E E E E E E E E ",
"l.r.Q K E E E E E E ) : i n.b.M.M.M.M.M.M.x.M.M.M.M.M.I.- > > > : > & i n.M.M.M.M.M.M.M.M.M.M.M.M.M.m.7 6 W E E E E E E E E E E ",
"l.r.9.Q E E E E E E ) : s n.M.M.M.M.M.M.M.M.M.M.M.M.M.n.g.g.g.g.g.d.d.f.M.M.M.M.M.M.M.M.M.M.M.M.M.b.U.1 6 ! E E E E E E E Q ~ ~ ",
"a.9.y.y.~ E E E E E ) : i n.b.M.M.M.M.M.M.M.M.M.M.M.M.M.M.M.M.M.M.n.M.M.M.b.M.M.M.M.M.M.M.M.M.M.M.M.U.1 6 ! E E E E E E E ~ r.u.",
"a.9.y.y.~ E E E E E ) : s n.M.M.M.M.M.M.M.M.M.M.M.M.M.x.x.b.M.M.n.n.M.M.M.b.b.M.M.M.M.M.M.M.M.M.M.x.U.1 6 ! E E E E E E E ~ r.u.",
"l.r.9.Q E E E E E E _ : B J.n.b.M.M.M.M.M.M.M.M.M.M.M.M.M.M.M.M.M.M.M.M.M.M.M.M.M.M.M.M.M.M.M.M.M.P.L.7 6 ) E E E E E E E Q ~ ~ ",
"l.r.Q K E E E E E E _ : 9 ` i.n.x.M.M.M.M.M.M.M.M.M.M.M.M.M.M.M.M.M.M.M.M.M.M.M.M.M.M.M.x.M.b.M.Y.q.[ = 6 ) E E E E E E E E E E ",
"a.~ E E E E E E E E ) 9 V J %.J.c.x.x.v.M.M.M.M.M.M.M.M.M.M.M.M.M.M.M.M.M.M.M.M.M.M.M.M.M.M.x.P.G.` J n B W E E E E E E E E E E ",
"w.E E E E E E E E E E W / : m [ i.M.M.M.M.M.M.M.M.M.M.M.M.n.n.n.n.n.n.n.M.M.M.M.M.M.M.M.M.n.I.0._ 9 > _ W E E E E E E E E E E E ",
"0.E E E E E E E E E E E ) t D J / a.d.G.n.M.M.M.M.M.M.M.M.n.n.M.M.M.M.M.M.M.M.M.M.M.M.I.G.p.a.( J V y ! E E E E E E E E E E E E ",
"0.E E E E E E E E E E E E E U > * * m ` d.x.x.x.x.x.x.M.M.M.M.M.M.M.M.M.M.M.M.M.x.v.x.q.[ r : $ 5 ) E E E E E E E E E E E E E E ",
"0.E E E E E E E E E E E E E ! Z m m D J O.#.#.#.#.X.#.#.#.#.X.#.#.#.#.#.#.#.#.#.#.X.@.U J D m B Z W E E E E E E E E E E E E E E ",
"0.E E E E E E E E E E E E E E E E E F * % ; % * * * * % : % % % % % % % % % % % : : * : @ _ E E E E E E E E E E E E E E E E E E ",
"0.E E E E E E E E E E E E E E E E E ! A y i 6 : b M M M M M M M M M M M n n M 6 $ t F F F W E E E E E E E E E E E E E E E E E E ",
"0.E E E E E E E E E E E E E E E E E R L p p t 5 J ' ' ' ] ] ] ] ' ' ' ' ' ' ] M : Z E E E E E E E E E E E E E E E E E E E E E E ",
"0.E E E E E E E E E E E E E E E ` +.} } ! L t > / S.S.S.i.i.S.S.S.e.q.q.q.q.q.G : Z E _ +.+.+.) E E E E E E E E E E E E E E E E ",
"0.E E E E E E E E E E E E E E W O.; ; ; U P t > $.Y.I.I.M.n.n.M.M.T.T.n.U.I.M. .: Z E S O O , _ W E E E E E E E E E E E E E E E ",
"0.E E E E E E E E E E E E E _ G ,.:.;.:.*.H 6 > $.c.%.@.m.M.M.M.M.M.M.f.@.a.M.I : N G &.;.;.;.*.+._ E E E E E E E E E E E E E E ",
"0.E E E E E E E E E E E E E U O v =X=X=Xz ; # > $.P.A B J.M.M.M.M.M.T.p.n Y n.I : : O ;.=X*X=Xx , @.~ ~ Q E E E E E E E E E E E ",
"0.E E E E E E E E E E E _ H >.k.A.Z.Z.Z.z.k.4 > $.J.C n h.b.M.M.M.M.M.p.N I T.Y * k k.z.Z.Z.C.z.k.*.{ t.~ E E E E E E E E E E E ",
"0.E E E E E E E E E E E / : =.=XZ.b.M.n.XX=Xj > $.h.A m J.M.M.M.M.M.M.p.n Y Y.I : v =XZ.N.M.N.&XoXl ; j.~ E E E E E E E E E E E ",
"0.E E E E E E E E E E E / : ..R.N.v.x.n.V.C.e > $.n.F m J.M.M.M.x.M.M.p.n Y Y.I % l V.N.v.v.x.B.V.u : j.9.E E E E E E E E E E E ",
"0.E E E E E E E E E E E / $ S I.x.M.n.K.n.n.e > $.h.F n h.M.M.M.M.M.M.p.n Y I.I : d M.n.m.n.M.x.J.r : j.9.E E E E E E E E E E E ",
"0.E E E E E E E E E E E / : S m.x.n.^ a a.I.e > o.h.A n h.x.x.M.M.M.M.p.n Y I. .: d m.o.a t.M.M.K.t : j.~ E E E E E E E E E E E ",
"0.E E E E E E E E E E E / q ..H.h.I.^ i $.H.r > o.c.F n J.x.x.M.M.M.M.p.n Y Y. .: d K.X.a t.M.h.F.H q s.~ E E E E E E E E E E E ",
"0.E E E E E E E E E E E W ! +.8 I T.h.F.Y Z > > o.I.F m J.x.x.M.M.M.M.p.n Y Y.I : 7 A o.d.c.n.a r O.^ ~ Q E E E E E E E E E E E ",
"0.E E E E E E E E E E E E E +.> H K.m.Y.! Z > > o.J.A n h.x.x.M.M.M.M.p.n Y Y.I * 6 i 9.n.h.H.t 5 / E E E E E E E E E E E E E E ",
"0.E E E E E E E E E E E E E +.: : & I Y.I.K.e > $.I.A m h.x.x.M.M.M.M.p.n Y T.I % S K.n.n.a & % 5 / E E E E E E E E E E E E E E ",
"0.E E E E E E E E E E E W W +.8 1 1 I T.f.s.a e t.I.A m h.x.x.M.M.M.M.p.n Y T.^ 1 A s.h.n.g 1 1 r O.W W E E E E E E E E E E E E ",
"0.E E E E E E E E E E E / > { H.h.h.I.Y.a & $.h.Y.h.A n J.M.M.v.v.v.M.p.n U T.n.J. .& I Y.h.h.h.H.y > ` E E E E E E E E E E E E ",
"0.E E E E E E E E E E E _ V O.L.J.L.L.L.Y y F.J.J.H.#.+.H.J.J.J.J.J.J.p.U %.J.J.J.%.B @.J.J.J.J.H.U V ) E E E E E E E E E E E E ",
"0.E E E E E E E E E E E E E E E E E E E E E E ~ y.y.~ ~ r.r.~ E E E E E E E E E E E E E E E E E E E E E E E E E E E E E E E E E ",
"0.E E E E E E E E E E E E E E E E E E E E E E ~ y.y.~ ~ r.r.~ E E E E E E E E E E E E E E E E E E E E E E E E E E E E E E E E E ",
"0.E E E E E E E E E E E E E E E E E E E E E E E Q 9.r.r.9.Q E E E E E E E E E E E E E E E E E E E E E E E E E E E E E E E E E E ",
"0.E E E E E E E E E E E E E E E E E E E E E E E K ~ u.u.~ K E E E E E E E E E E E E E E E E E E E E E E E E E E E E E E E E E E ",
"0.E E E E E E E E E E E E E E E E E ~ ~ E E E 9.E E 9.E E E E Q E Q E E E E E E ~ E E E Q E Q E Q E E ~ E Q E E E ~ ~ E ~ E ~ E ",
"0.E E E E E E E E E E E E E E E E ~ E E ~ E E E E E E E E 9.>.E Q E E E E E E E E E ~ E L L R ~ E ~ E E E ~ E ~ E E R E E E ~ E "
};
